<svg id="Calque_1" data-name="Calque 1" xmlns="http://www.w3.org/2000/svg" viewBox="0 0 433 160"><defs><style>.cls-1{fill:#6a6ae6;}</style></defs><path class="cls-1" d="M99.15,42.54l-43.47,75.3h86.94Zm0,11.85,17.29,30H81.85Z"/><path class="cls-1" d="M99.15,90.53a34.94,34.94,0,0,1-33.44-45l6,1.81a28.63,28.63,0,1,0,54.76-.24l6-1.87a34.94,34.94,0,0,1-33.35,45.3Z"/><polygon class="cls-1" points="142.4 92.34 132.43 82.36 118.54 88.83 115.89 83.13 133.76 74.8 146.85 87.89 142.4 92.34"/><polygon class="cls-1" points="55.89 92.34 51.45 87.89 64.53 74.8 82.41 83.13 79.75 88.83 65.87 82.36 55.89 92.34"/><path class="cls-1" d="M182.63,67.93h6.1l14.59,33.52H195l-2.89-7.1h-13l-2.79,7.1h-8.14Zm2.84,9.75L181.39,88.1h8.19Z"/><path class="cls-1" d="M206.67,67.93h13a23,23,0,0,1,4.85.5,11.52,11.52,0,0,1,4,1.66,8.17,8.17,0,0,1,2.75,3.12,10.68,10.68,0,0,1,1,4.9,9.86,9.86,0,0,1-1.85,6A8.33,8.33,0,0,1,225,87.3l8.52,14.15h-8.85l-7-13.4h-3.65v13.4h-7.39Zm7.39,13.87h4.35c.67,0,1.37,0,2.11-.07a6.52,6.52,0,0,0,2-.42A3.51,3.51,0,0,0,224,80.2a3.37,3.37,0,0,0,.6-2.13,3.58,3.58,0,0,0-.52-2,3.45,3.45,0,0,0-1.33-1.16,6,6,0,0,0-1.85-.55,15.75,15.75,0,0,0-2-.14h-4.83Z"/><path class="cls-1" d="M248.38,67.93h6.11l14.58,33.52h-8.33l-2.89-7.1h-13l-2.79,7.1H233.9Zm2.84,9.75L247.15,88.1h8.19Z"/><path class="cls-1" d="M302.78,99.09a27.17,27.17,0,0,1-6.82,2.46,35,35,0,0,1-7.24.75,20.61,20.61,0,0,1-7.24-1.23,16.35,16.35,0,0,1-5.73-3.53A15.88,15.88,0,0,1,272,92a20.36,20.36,0,0,1,0-14.58,16,16,0,0,1,3.77-5.56,16.5,16.5,0,0,1,5.73-3.53,20.61,20.61,0,0,1,7.24-1.23,26.73,26.73,0,0,1,7.41,1,14.53,14.53,0,0,1,5.94,3.34l-5.21,5.68a10.49,10.49,0,0,0-3.41-2.37,12.26,12.26,0,0,0-4.73-.8,11.12,11.12,0,0,0-4.29.8A9.83,9.83,0,0,0,281.14,77a10,10,0,0,0-2.1,3.43,12.39,12.39,0,0,0-.74,4.31A12.22,12.22,0,0,0,279,89a10,10,0,0,0,2.1,3.41,9.55,9.55,0,0,0,3.29,2.25,10.93,10.93,0,0,0,4.29.81,13.8,13.8,0,0,0,4.16-.55,15.62,15.62,0,0,0,2.8-1.11V88.39h-6V81.57h13.11Z"/><path class="cls-1" d="M307.47,84.69a19.12,19.12,0,0,1,1.34-7.29,16,16,0,0,1,3.77-5.56,16.59,16.59,0,0,1,5.73-3.53,21.92,21.92,0,0,1,14.48,0,16.59,16.59,0,0,1,5.73,3.53,16,16,0,0,1,3.77,5.56,20.36,20.36,0,0,1,0,14.58,15.88,15.88,0,0,1-3.77,5.56,16.44,16.44,0,0,1-5.73,3.53,21.92,21.92,0,0,1-14.48,0,16.44,16.44,0,0,1-5.73-3.53A15.88,15.88,0,0,1,308.81,92,19.12,19.12,0,0,1,307.47,84.69Zm7.66,0a12.22,12.22,0,0,0,.74,4.33A9.85,9.85,0,0,0,318,92.43a9.36,9.36,0,0,0,3.29,2.25,11.74,11.74,0,0,0,8.57,0,9.55,9.55,0,0,0,3.29-2.25,10,10,0,0,0,2.1-3.41,12.22,12.22,0,0,0,.73-4.33,12.38,12.38,0,0,0-.73-4.31,10,10,0,0,0-2.1-3.43,9.83,9.83,0,0,0-3.29-2.25,11.88,11.88,0,0,0-8.57,0A9.63,9.63,0,0,0,318,77a9.84,9.84,0,0,0-2.11,3.43A12.39,12.39,0,0,0,315.13,84.69Z"/><path class="cls-1" d="M379,99.09a27.17,27.17,0,0,1-6.82,2.46,34.88,34.88,0,0,1-7.24.75,20.65,20.65,0,0,1-7.24-1.23A16.44,16.44,0,0,1,352,97.54,15.72,15.72,0,0,1,348.21,92a20.36,20.36,0,0,1,0-14.58A15.81,15.81,0,0,1,352,71.84a16.59,16.59,0,0,1,5.73-3.53,20.65,20.65,0,0,1,7.24-1.23,26.73,26.73,0,0,1,7.41,1,14.53,14.53,0,0,1,5.94,3.34l-5.21,5.68a10.45,10.45,0,0,0-3.4-2.37,12.35,12.35,0,0,0-4.74-.8,11.07,11.07,0,0,0-4.28.8A9.63,9.63,0,0,0,357.37,77a9.84,9.84,0,0,0-2.11,3.43,12.39,12.39,0,0,0-.74,4.31,12.22,12.22,0,0,0,.74,4.33,9.85,9.85,0,0,0,2.11,3.41,9.36,9.36,0,0,0,3.29,2.25,10.88,10.88,0,0,0,4.28.81,13.91,13.91,0,0,0,4.17-.55,15.48,15.48,0,0,0,2.79-1.11V88.39h-6V81.57H379Z"/></svg>