<svg id="Calque_1" data-name="Calque 1" xmlns="http://www.w3.org/2000/svg" viewBox="0 0 160 160"><defs><style>.cls-1{fill:#6a6ae6;}.cls-2{fill:#fff;}</style></defs><rect class="cls-1" x="0.15" y="0.19" width="160" height="160"/><path class="cls-2" d="M80.15,42.54l-43.47,75.3h86.94Zm0,11.85,17.29,30H62.85Z"/><path class="cls-2" d="M80.15,90.53a34.94,34.94,0,0,1-33.44-45l6,1.81a28.63,28.63,0,1,0,54.76-.24l6-1.87a34.94,34.94,0,0,1-33.35,45.3Z"/><polygon class="cls-2" points="123.4 92.34 113.43 82.36 99.54 88.83 96.89 83.13 114.76 74.8 127.85 87.89 123.4 92.34"/><polygon class="cls-2" points="36.89 92.34 32.45 87.89 45.53 74.8 63.41 83.13 60.76 88.83 46.87 82.36 36.89 92.34"/></svg>