<svg id="Calque_1" data-name="Calque 1" xmlns="http://www.w3.org/2000/svg" viewBox="0 0 160 160"><defs><style>.cls-1{fill:#6a6ae6;}</style></defs><path class="cls-1" d="M79.15,42.54l-43.47,75.3h86.94Zm0,11.85,17.29,30H61.85Z"/><path class="cls-1" d="M79.15,90.53a34.94,34.94,0,0,1-33.44-45l6,1.81a28.63,28.63,0,1,0,54.76-.24l6-1.87a34.94,34.94,0,0,1-33.35,45.3Z"/><polygon class="cls-1" points="122.4 92.34 112.43 82.36 98.54 88.83 95.89 83.13 113.76 74.8 126.85 87.89 122.4 92.34"/><polygon class="cls-1" points="35.89 92.34 31.45 87.89 44.53 74.8 62.41 83.13 59.76 88.83 45.87 82.36 35.89 92.34"/></svg>