<svg id="Calque_1" data-name="Calque 1" xmlns="http://www.w3.org/2000/svg" xmlns:xlink="http://www.w3.org/1999/xlink" viewBox="0 0 84.5 334.27"><defs><style>.cls-1{fill:none;}.cls-2{isolation:isolate;}.cls-3{clip-path:url(#clip-path);}.cls-4{fill:#b4d6dd;}.cls-5{fill:#b6d9dd;}.cls-6{fill:#b7dcdd;}.cls-7{fill:#b9dedc;}.cls-8{fill:#bbe1dc;}.cls-9{fill:#bde3dc;}.cls-10{fill:#bfe6dc;}.cls-11{fill:#c0e9db;}.cls-12{fill:#c2ebdb;}.cls-13{fill:#b2d4dd;}.cls-14{fill:#b0d1dd;}.cls-15{fill:#aecede;}.cls-16{fill:#adccde;}.cls-17{fill:#abc9de;}.cls-18{fill:#a9c6de;}.cls-19{fill:#a7c4df;}.cls-20{fill:#a5c1df;}.cls-21{clip-path:url(#clip-path-2);}.cls-22{fill:#a4bedf;}.cls-23{fill:#a2bcdf;}.cls-24{fill:#a0b9df;}.cls-25{fill:#9eb7e0;}.cls-26{fill:#9cb4e0;}.cls-27{fill:#9bb1e0;}.cls-28{fill:#b8dcdc;}.cls-29{fill:#a9c7de;}.cls-30{clip-path:url(#clip-path-3);}.cls-31{clip-path:url(#clip-path-4);}.cls-32{fill:#99afe0;}.cls-33{clip-path:url(#clip-path-5);}.cls-34{clip-path:url(#clip-path-6);}.cls-35{fill:#a0badf;}</style><clipPath id="clip-path" transform="translate(-944.89 -592.12)"><path class="cls-1" d="M985.66,868.86,999,864.81a103.79,103.79,0,0,0,.55,10.75,44.4,44.4,0,0,0,2.23,10.44,23.85,23.85,0,0,0,4.93,8.37,16.38,16.38,0,0,0,8.33,4.82l-13.38,4.06a16.46,16.46,0,0,1-8.33-4.83,24,24,0,0,1-4.93-8.37,44.93,44.93,0,0,1-2.23-10.43A104.12,104.12,0,0,1,985.66,868.86Z"/></clipPath><clipPath id="clip-path-2" transform="translate(-944.89 -592.12)"><path class="cls-1" d="M967.15,731.35l-13.38,4a16.4,16.4,0,0,1-8.82-.06l13.38-4.05A16.5,16.5,0,0,0,967.15,731.35Z"/></clipPath><clipPath id="clip-path-3" transform="translate(-944.89 -592.12)"><path class="cls-1" d="M960.76,749.9l13.38-4c1.7,1.39,4,2.88,6.78,5.16a41.75,41.75,0,0,1,8.33,9.77,64,64,0,0,1,7,16,78.26,78.26,0,0,1,2.92,22.87l-13.38,4.05a78.31,78.31,0,0,0-2.92-22.87,64.15,64.15,0,0,0-7-16,41.75,41.75,0,0,0-8.33-9.77C964.71,752.78,962.46,751.29,960.76,749.9Z"/></clipPath><clipPath id="clip-path-4" transform="translate(-944.89 -592.12)"><path class="cls-1" d="M980.6,744.89l-13.38,4.05.33-.1a20.07,20.07,0,0,0,8.38-5.6c2.72-2.85,5.1-7,7.1-12.5s3-12.62,3-21.4l13.38-4.05q0,13.17-3,21.4c-2,5.47-4.38,9.65-7.1,12.5a20.07,20.07,0,0,1-8.38,5.6Z"/></clipPath><clipPath id="clip-path-5" transform="translate(-944.89 -592.12)"><path class="cls-1" d="M995.82,617.76l13.38-4a8,8,0,0,0-1.76.77,12.21,12.21,0,0,0-5,5.9,32.47,32.47,0,0,0-2.28,9.33,95.69,95.69,0,0,0-.6,10.45l-13.38,4.05a95.69,95.69,0,0,1,.6-10.45,32.47,32.47,0,0,1,2.28-9.33,12.21,12.21,0,0,1,5-5.9A8,8,0,0,1,995.82,617.76Z"/></clipPath><clipPath id="clip-path-6" transform="translate(-944.89 -592.12)"><path class="cls-1" d="M984.78,597.05l13.38-4c.64-.19,1.29-.35,2-.48a27.08,27.08,0,0,1,11.46.47l-13.37,4a27.29,27.29,0,0,0-11.47-.47C986.07,596.7,985.42,596.86,984.78,597.05Z"/></clipPath></defs><g class="cls-2"><g class="cls-2"><g class="cls-3"><g class="cls-2"><path class="cls-4" d="M985.66,868.86,999,864.81c0,.84,0,1.69,0,2.56l-13.38,4c0-.86,0-1.72,0-2.56" transform="translate(-944.89 -592.12)"/><path class="cls-5" d="M985.69,871.42l13.38-4c0,1.22.08,2.46.16,3.72l-13.38,4c-.08-1.26-.13-2.5-.16-3.72" transform="translate(-944.89 -592.12)"/><path class="cls-6" d="M985.85,875.14l13.38-4q.12,2.19.36,4.47v.14l-13.38,4v-.13c-.15-1.53-.28-3-.36-4.48" transform="translate(-944.89 -592.12)"/><path class="cls-7" d="M986.22,879.75l13.38-4q.1,1,.24,2l-13.38,4.05q-.13-1-.24-2" transform="translate(-944.89 -592.12)"/><path class="cls-8" d="M986.46,881.73l13.38-4.05c.1.69.21,1.37.33,2.05l-13.38,4c-.12-.68-.23-1.36-.33-2" transform="translate(-944.89 -592.12)"/><path class="cls-9" d="M986.79,883.78l13.38-4c.14.74.29,1.48.47,2.2L987.26,886c-.17-.73-.33-1.46-.47-2.21" transform="translate(-944.89 -592.12)"/><path class="cls-10" d="M987.26,886l13.38-4.06c.21.89.44,1.76.7,2.61L988,888.59c-.26-.85-.49-1.72-.7-2.6" transform="translate(-944.89 -592.12)"/><path class="cls-11" d="M988,888.59l13.38-4.05c.15.49.31,1,.48,1.46a27.42,27.42,0,0,0,1.07,2.61l-13.38,4a27.42,27.42,0,0,1-1.07-2.61c-.17-.48-.33-1-.48-1.46" transform="translate(-944.89 -592.12)"/><path class="cls-12" d="M989.51,892.66l13.38-4c0,.09.08.17.13.26l-13.38,4c0-.08-.09-.17-.13-.26" transform="translate(-944.89 -592.12)"/><path class="cls-11" d="M989.64,892.92l13.38-4a23.59,23.59,0,0,0,1.81,3.09l-13.38,4a23.59,23.59,0,0,1-1.81-3.09" transform="translate(-944.89 -592.12)"/><path class="cls-10" d="M991.45,896l13.38-4c.31.45.63.88,1,1.3l-13.38,4c-.34-.42-.66-.85-1-1.3" transform="translate(-944.89 -592.12)"/><path class="cls-9" d="M992.42,897.31l13.38-4c.28.34.56.67.86,1l-13.38,4c-.3-.32-.58-.66-.86-1" transform="translate(-944.89 -592.12)"/><path class="cls-8" d="M993.28,898.31l13.38-4,.09.11.53.55L993.9,899l-.53-.55-.09-.11" transform="translate(-944.89 -592.12)"/><path class="cls-7" d="M993.9,899l13.38-4.05.55.52-13.38,4-.55-.52" transform="translate(-944.89 -592.12)"/><path class="cls-6" d="M994.45,899.49l13.38-4,.54.47L995,900l-.54-.47" transform="translate(-944.89 -592.12)"/><path class="cls-5" d="M995,900l13.38-4.05.56.43-13.38,4L995,900" transform="translate(-944.89 -592.12)"/><path class="cls-4" d="M995.55,900.39l13.38-4c.18.14.37.28.57.41l-13.38,4-.57-.41" transform="translate(-944.89 -592.12)"/><path class="cls-13" d="M996.12,900.8l13.38-4,.59.38-13.38,4-.59-.38" transform="translate(-944.89 -592.12)"/><path class="cls-14" d="M996.71,901.18l13.38-4,.63.37-13.38,4-.63-.37" transform="translate(-944.89 -592.12)"/><path class="cls-15" d="M997.34,901.55l13.38-4,.67.35L998,901.91c-.22-.12-.45-.23-.67-.36" transform="translate(-944.89 -592.12)"/><path class="cls-16" d="M998,901.91l13.38-4.06c.24.12.48.24.73.34l-13.38,4c-.25-.1-.49-.22-.73-.33" transform="translate(-944.89 -592.12)"/><path class="cls-17" d="M998.74,902.24l13.38-4c.26.12.53.23.8.33l-13.38,4.05c-.27-.1-.54-.21-.8-.33" transform="translate(-944.89 -592.12)"/><path class="cls-18" d="M999.54,902.57l13.38-4.05c.28.11.58.21.88.31l-13.38,4c-.3-.1-.6-.2-.88-.31" transform="translate(-944.89 -592.12)"/><path class="cls-19" d="M1000.42,902.88l13.38-4,1,.29-13.38,4c-.34-.09-.67-.18-1-.29" transform="translate(-944.89 -592.12)"/><path class="cls-20" d="M1001.41,903.17l13.38-4,.29.07-13.38,4.06-.29-.08" transform="translate(-944.89 -592.12)"/></g></g></g><g class="cls-2"><g class="cls-21"><g class="cls-2"><path class="cls-20" d="M945,735.34l13.38-4.05c.33.08.66.16,1,.22l-13.38,4c-.32-.06-.65-.14-1-.22" transform="translate(-944.89 -592.12)"/><path class="cls-22" d="M945.93,735.56l13.38-4c.44.09.87.17,1.29.23l-13.38,4c-.42-.06-.85-.14-1.29-.23" transform="translate(-944.89 -592.12)"/><path class="cls-23" d="M947.22,735.79l13.38-4c.43.06.84.1,1.25.13l-13.38,4.06c-.41,0-.82-.08-1.25-.14" transform="translate(-944.89 -592.12)"/><path class="cls-24" d="M948.47,735.93l13.38-4.06c.42,0,.83,0,1.24,0L949.71,736c-.4,0-.82,0-1.24,0" transform="translate(-944.89 -592.12)"/><path class="cls-25" d="M949.71,736l13.38-4.05c.43,0,.84,0,1.26,0l-13.38,4c-.41,0-.83.05-1.26,0" transform="translate(-944.89 -592.12)"/><path class="cls-26" d="M951,735.93l13.38-4c.45,0,.9-.1,1.34-.18l-13.38,4c-.44.08-.89.14-1.34.18" transform="translate(-944.89 -592.12)"/><path class="cls-27" d="M952.31,735.75l13.38-4a11.94,11.94,0,0,0,1.46-.35l-13.38,4a11.51,11.51,0,0,1-1.46.35" transform="translate(-944.89 -592.12)"/></g></g></g><polygon class="cls-28" points="70.38 314.51 83.76 310.46 83.71 330.22 70.33 334.27 70.38 314.51"/><polygon class="cls-29" points="56.8 311.13 70.18 307.08 83.76 310.46 70.38 314.51 56.8 311.13"/><polygon class="cls-28" points="40.93 211.61 54.3 207.56 54.15 272.69 40.77 276.75 40.93 211.61"/><g class="cls-2"><g class="cls-30"><g class="cls-2"><path class="cls-5" d="M960.76,749.9l13.38-4c.44.36.93.73,1.45,1.12L962.21,751c-.52-.4-1-.77-1.45-1.13" transform="translate(-944.89 -592.12)"/><path class="cls-4" d="M962.21,751,975.59,747l2.72,2-13.38,4c-1-.75-1.91-1.4-2.72-2" transform="translate(-944.89 -592.12)"/><path class="cls-5" d="M964.93,753l13.38-4c.81.61,1.68,1.27,2.61,2l.11.09-13.38,4-.11-.09c-.93-.75-1.8-1.41-2.61-2" transform="translate(-944.89 -592.12)"/><path class="cls-6" d="M967.65,755.15l13.38-4c.32.27.64.54,1,.84l-13.38,4c-.32-.29-.65-.57-1-.84" transform="translate(-944.89 -592.12)"/><path class="cls-7" d="M968.62,756l13.38-4c.36.32.72.67,1.08,1l-13.38,4c-.36-.36-.72-.7-1.08-1" transform="translate(-944.89 -592.12)"/><path class="cls-8" d="M969.7,757l13.38-4c.43.42.85.86,1.27,1.33L971,758.35c-.42-.47-.84-.91-1.27-1.33" transform="translate(-944.89 -592.12)"/><path class="cls-9" d="M971,758.35l13.38-4.05c.52.57,1,1.19,1.57,1.83l-13.38,4c-.52-.64-1-1.25-1.57-1.83" transform="translate(-944.89 -592.12)"/><path class="cls-10" d="M972.54,760.18l13.38-4c.73.92,1.47,1.9,2.19,3l-13.38,4c-.72-1-1.46-2-2.19-3" transform="translate(-944.89 -592.12)"/><path class="cls-11" d="M974.73,763.13l13.38-4c.38.55.77,1.11,1.14,1.7a50,50,0,0,1,2.67,4.74l-13.38,4.05a50,50,0,0,0-2.67-4.74c-.37-.59-.75-1.15-1.14-1.7" transform="translate(-944.89 -592.12)"/><path class="cls-12" d="M978.54,769.57l13.38-4.05c.16.32.31.65.47,1l-13.38,4c-.15-.33-.31-.66-.47-1" transform="translate(-944.89 -592.12)"/><path class="cls-11" d="M979,770.55l13.38-4a77.62,77.62,0,0,1,3.83,10.09l-13.38,4A77.62,77.62,0,0,0,979,770.55" transform="translate(-944.89 -592.12)"/><path class="cls-10" d="M982.84,780.64l13.38-4,.06.22c.34,1.09.64,2.22.91,3.38l-13.37,4c-.28-1.16-.58-2.29-.92-3.38l-.06-.22" transform="translate(-944.89 -592.12)"/><path class="cls-9" d="M983.82,784.24l13.37-4c.25,1,.47,2.08.67,3.16l-13.38,4c-.2-1.08-.42-2.13-.66-3.16" transform="translate(-944.89 -592.12)"/><path class="cls-8" d="M984.48,787.4l13.38-4q.28,1.53.51,3.12l-13.38,4q-.22-1.59-.51-3.12" transform="translate(-944.89 -592.12)"/><path class="cls-7" d="M985,790.52l13.38-4c.14,1,.27,2.12.38,3.22l-13.38,4c-.11-1.1-.24-2.17-.38-3.22" transform="translate(-944.89 -592.12)"/><path class="cls-6" d="M985.37,793.74l13.38-4c.11,1.11.2,2.24.27,3.4l-13.38,4c-.07-1.16-.16-2.29-.27-3.4" transform="translate(-944.89 -592.12)"/><path class="cls-5" d="M985.64,797.14l13.38-4c.07,1.2.12,2.43.15,3.68l-13.38,4.05c0-1.25-.08-2.48-.15-3.68" transform="translate(-944.89 -592.12)"/><path class="cls-4" d="M985.79,800.82l13.38-4.05q0,1.44,0,2.91l-13.38,4.05q0-1.47,0-2.91" transform="translate(-944.89 -592.12)"/></g></g></g><g class="cls-2"><g class="cls-31"><g class="cls-2"><path class="cls-4" d="M986.05,709.34l13.38-4.05c0,.37,0,.73,0,1.09l-13.38,4c0-.36,0-.72,0-1.09" transform="translate(-944.89 -592.12)"/><path class="cls-13" d="M986,710.43l13.38-4c0,1.24,0,2.45-.1,3.62l-13.38,4c0-1.17.09-2.38.1-3.62" transform="translate(-944.89 -592.12)"/><path class="cls-14" d="M985.94,714.05l13.38-4c-.05,1.06-.12,2.08-.2,3.08l-13.38,4c.08-1,.15-2,.2-3.08" transform="translate(-944.89 -592.12)"/><path class="cls-15" d="M985.74,717.13l13.38-4q-.12,1.36-.27,2.67l-13.38,4q.15-1.31.27-2.67" transform="translate(-944.89 -592.12)"/><path class="cls-16" d="M985.47,719.8l13.38-4c-.1.8-.2,1.59-.32,2.35l-13.38,4c.12-.76.22-1.55.32-2.35" transform="translate(-944.89 -592.12)"/><path class="cls-17" d="M985.15,722.15l13.38-4c-.11.72-.24,1.42-.37,2.11l-13.38,4c.13-.69.26-1.39.37-2.11" transform="translate(-944.89 -592.12)"/><path class="cls-18" d="M984.78,724.26l13.38-4c-.13.65-.26,1.28-.41,1.91l-13.38,4c.15-.62.28-1.26.41-1.91" transform="translate(-944.89 -592.12)"/><path class="cls-19" d="M984.37,726.17l13.38-4c-.14.59-.29,1.18-.45,1.75l-13.38,4c.16-.57.31-1.15.45-1.75" transform="translate(-944.89 -592.12)"/><path class="cls-20" d="M983.92,727.92l13.38-4c-.15.56-.32,1.1-.49,1.63l-13.38,4c.18-.53.34-1.07.49-1.63" transform="translate(-944.89 -592.12)"/><path class="cls-22" d="M983.43,729.55l13.38-4c-.13.4-.26.8-.4,1.19-.08.2-.16.41-.23.61l-13.38,4.06c.07-.21.15-.42.23-.62.14-.39.27-.78.4-1.19" transform="translate(-944.89 -592.12)"/><path class="cls-23" d="M982.8,731.36l13.38-4.06c-.34.9-.69,1.76-1,2.58l-13.38,4c.35-.82.7-1.68,1-2.57" transform="translate(-944.89 -592.12)"/><path class="cls-24" d="M981.76,733.93l13.38-4c-.36.81-.72,1.58-1.09,2.32l-13.38,4c.37-.74.74-1.51,1.09-2.32" transform="translate(-944.89 -592.12)"/><path class="cls-25" d="M980.67,736.25l13.38-4c-.38.75-.76,1.46-1.16,2.14l-13.38,4c.4-.68.78-1.39,1.16-2.14" transform="translate(-944.89 -592.12)"/><path class="cls-26" d="M979.51,738.39l13.38-4c-.42.71-.85,1.39-1.29,2l-13.38,4c.44-.63.87-1.31,1.29-2" transform="translate(-944.89 -592.12)"/><path class="cls-27" d="M978.22,740.41l13.38-4a22.84,22.84,0,0,1-1.58,2l-13.38,4.05a22.84,22.84,0,0,0,1.58-2" transform="translate(-944.89 -592.12)"/><path class="cls-32" d="M976.64,742.45,990,738.4c-.23.27-.47.53-.71.79a20.07,20.07,0,0,1-8.38,5.6l-.33.1-13.38,4.05.33-.1a20.07,20.07,0,0,0,8.38-5.6c.24-.25.48-.52.71-.79" transform="translate(-944.89 -592.12)"/></g></g></g><polygon class="cls-28" points="41.31 52.09 54.69 48.04 54.53 113.17 41.16 117.22 41.31 52.09"/><g class="cls-2"><g class="cls-33"><g class="cls-2"><path class="cls-32" d="M995.82,617.76l13.38-4a8,8,0,0,0-1.76.77,11.09,11.09,0,0,0-2.78,2.33l-13.38,4.05a11.3,11.3,0,0,1,2.78-2.33,8,8,0,0,1,1.76-.77" transform="translate(-944.89 -592.12)"/><path class="cls-27" d="M991.28,620.86l13.38-4.05c-.28.32-.54.66-.79,1l-13.38,4c.25-.35.51-.69.79-1" transform="translate(-944.89 -592.12)"/><path class="cls-26" d="M990.49,621.87l13.38-4c-.19.28-.38.57-.55.87l-13.38,4c.17-.3.36-.59.55-.87" transform="translate(-944.89 -592.12)"/><path class="cls-25" d="M989.94,622.74l13.38-4c-.16.26-.31.54-.45.82l-13.38,4c.14-.28.29-.55.45-.82" transform="translate(-944.89 -592.12)"/><path class="cls-24" d="M989.49,623.56l13.38-4c-.12.25-.24.5-.36.77l-13.38,4.05c.12-.27.24-.52.36-.77" transform="translate(-944.89 -592.12)"/><path class="cls-23" d="M989.13,624.33l13.38-4.05,0,.1c-.14.33-.28.67-.41,1l-13.38,4.05c.13-.34.27-.68.41-1l0-.1" transform="translate(-944.89 -592.12)"/><path class="cls-22" d="M988.68,625.44l13.38-4.05c-.14.39-.28.78-.41,1.18l-13.38,4c.13-.4.27-.79.41-1.18" transform="translate(-944.89 -592.12)"/><path class="cls-20" d="M988.27,626.62l13.38-4c-.13.4-.25.8-.36,1.21l-13.38,4.05c.11-.41.23-.81.36-1.21" transform="translate(-944.89 -592.12)"/><path class="cls-19" d="M987.91,627.83l13.38-4.05c-.12.4-.22.81-.32,1.24l-13.38,4.05c.1-.43.2-.84.32-1.24" transform="translate(-944.89 -592.12)"/><path class="cls-18" d="M987.59,629.07,1001,625c-.1.42-.19.85-.28,1.29l-13.38,4.05c.09-.44.18-.87.28-1.29" transform="translate(-944.89 -592.12)"/><path class="cls-17" d="M987.31,630.36l13.38-4.05c-.08.45-.16.9-.24,1.37l-13.38,4.05c.08-.47.16-.92.24-1.37" transform="translate(-944.89 -592.12)"/><path class="cls-16" d="M987.07,631.73l13.38-4.05c-.07.47-.14,1-.2,1.45l-13.38,4c.06-.49.13-1,.2-1.45" transform="translate(-944.89 -592.12)"/><path class="cls-15" d="M986.87,633.18l13.38-4-.06.58c-.11.94-.2,1.89-.28,2.83l-13.38,4.05c.08-.94.17-1.88.28-2.83l.06-.58" transform="translate(-944.89 -592.12)"/><path class="cls-14" d="M986.53,636.59l13.38-4.05c-.09,1.11-.16,2.22-.21,3.31l-13.38,4.06c0-1.1.12-2.21.21-3.32" transform="translate(-944.89 -592.12)"/><path class="cls-13" d="M986.32,639.91l13.38-4.06c-.06,1.14-.09,2.26-.1,3.38l-13.38,4c0-1.12,0-2.24.1-3.37" transform="translate(-944.89 -592.12)"/><path class="cls-4" d="M986.22,643.28l13.38-4c0,.31,0,.62,0,.93l-13.38,4.05c0-.31,0-.62,0-.93" transform="translate(-944.89 -592.12)"/></g></g></g><g class="cls-2"><g class="cls-34"><g class="cls-2"><path class="cls-27" d="M984.78,597.05l13.38-4c.64-.19,1.29-.35,2-.48l.15,0-13.38,4-.15,0c-.67.13-1.32.29-2,.48" transform="translate(-944.89 -592.12)"/><path class="cls-26" d="M986.89,596.55l13.38-4a23.41,23.41,0,0,1,2.36-.3l-13.38,4a23.41,23.41,0,0,0-2.36.3" transform="translate(-944.89 -592.12)"/><path class="cls-25" d="M989.25,596.25l13.38-4c.7-.06,1.41-.09,2.12-.08l-13.38,4c-.71,0-1.42,0-2.12.08" transform="translate(-944.89 -592.12)"/><path class="cls-24" d="M991.37,596.17l13.38-4c.65,0,1.29,0,1.94.07l-13.37,4c-.66,0-1.3-.07-2-.07" transform="translate(-944.89 -592.12)"/><path class="cls-23" d="M993.32,596.24l13.37-4c.61,0,1.22.12,1.84.2l-13.38,4.05c-.61-.08-1.23-.15-1.83-.2" transform="translate(-944.89 -592.12)"/><path class="cls-22" d="M995.15,596.44l13.38-4.05c.59.09,1.18.19,1.77.31l-13.38,4c-.59-.12-1.18-.22-1.77-.31" transform="translate(-944.89 -592.12)"/><path class="cls-20" d="M996.92,596.75l13.38-4,1.28.29-13.37,4-1.29-.29" transform="translate(-944.89 -592.12)"/></g></g></g><polygon class="cls-29" points="53.31 4.93 66.69 0.88 84.5 5.32 71.13 9.37 53.31 4.93"/><polygon class="cls-28" points="71.13 9.37 84.5 5.32 84.46 25.07 71.08 29.13 71.13 9.37"/><path class="cls-35" d="M1016,601.48l0,19.76-13.58-3.38c-3.38-.85-6.17-.62-8.33.67a12.21,12.21,0,0,0-5,5.9,32.47,32.47,0,0,0-2.28,9.33,95.69,95.69,0,0,0-.6,10.45l-.16,65.13q0,13.17-3,21.4c-2,5.47-4.38,9.65-7.1,12.5a20.07,20.07,0,0,1-8.38,5.6,17.85,17.85,0,0,1-6.79,1.06c1.7,1.39,4,2.88,6.78,5.16a41.75,41.75,0,0,1,8.33,9.77,64.15,64.15,0,0,1,7,16,78.31,78.31,0,0,1,2.92,22.87l-.16,65.13a104.12,104.12,0,0,0,.55,10.76,44.93,44.93,0,0,0,2.23,10.43,24,24,0,0,0,4.93,8.37,16.46,16.46,0,0,0,8.33,4.83l13.58,3.38,0,19.76L997.41,922A35.77,35.77,0,0,1,986,916.7a36.41,36.41,0,0,1-9.71-10.1,53,53,0,0,1-6.76-15.78A85.4,85.4,0,0,1,967,868.6l.16-65.14q0-19.38-5.6-31.4t-16.66-14.78l.06-21.94q11,2.76,16.71-6.46t5.74-28.58l.16-65.13q0-12.81,2.6-20.95c1.7-5.43,4-9.55,6.83-12.4a18.23,18.23,0,0,1,9.75-5.25,27.29,27.29,0,0,1,11.47.47Z" transform="translate(-944.89 -592.12)"/></g></svg>