<svg id="Calque_1" data-name="Calque 1" xmlns="http://www.w3.org/2000/svg" xmlns:xlink="http://www.w3.org/1999/xlink" viewBox="0 0 232.99 290.78"><defs><style>.cls-1{fill:none;}.cls-2{isolation:isolate;}.cls-3{clip-path:url(#clip-path);}.cls-4{fill:#a4bedf;}.cls-5{fill:#a2bcdf;}.cls-6{fill:#a0b9df;}.cls-7{fill:#9eb7e0;}.cls-8{fill:#9cb4e0;}.cls-9{fill:#9bb1e0;}.cls-10{clip-path:url(#clip-path-2);}.cls-11{fill:#99afe0;}.cls-12{fill:#a5c1df;}.cls-13{fill:#a7c4df;}.cls-14{fill:#a9c6de;}.cls-15{fill:#abc9de;}.cls-16{fill:#adccde;}.cls-17{fill:#aecede;}.cls-18{fill:#b0d1dd;}.cls-19{fill:#b2d4dd;}.cls-20{fill:#b4d6dd;}.cls-21{fill:#b6d9dd;}.cls-22{fill:#b7dcdd;}.cls-23{fill:#b9dedc;}.cls-24{fill:#bbe1dc;}.cls-25{fill:#bde3dc;}.cls-26{fill:#bfe6dc;}.cls-27{fill:#c0e9db;}.cls-28{fill:#c2ebdb;}.cls-29{fill:#c4eedb;}.cls-30{clip-path:url(#clip-path-3);}.cls-31{fill:#9db5e0;}.cls-32{clip-path:url(#clip-path-4);}</style><clipPath id="clip-path" transform="translate(-986.59 -176.85)"><path class="cls-1" d="M1137.12,430.69,1124,434a63.57,63.57,0,0,1-26.61.8l13.12-3.28A63.55,63.55,0,0,0,1137.12,430.69Z"/></clipPath><clipPath id="clip-path-2" transform="translate(-986.59 -176.85)"><path class="cls-1" d="M1069.05,213.79l13.13-3.28c-34.07,8.52-58.5,45.9-58.12,95,.47,61.15,39.25,117.67,86.45,126l-13.12,3.28c-47.2-8.32-86-64.85-86.46-126C1010.55,259.69,1035,222.31,1069.05,213.79Z"/></clipPath><clipPath id="clip-path-3" transform="translate(-986.59 -176.85)"><path class="cls-1" d="M1061.24,182.49l13.13-3.28a81.66,81.66,0,0,1,34.18-1l-13.12,3.29A81.54,81.54,0,0,0,1061.24,182.49Z"/></clipPath><clipPath id="clip-path-4" transform="translate(-986.59 -176.85)"><path class="cls-1" d="M1144.93,462l-13.12,3.28c43.76-10.94,75.13-58.95,74.64-122-.6-78.53-50.41-151.12-111-161.8l13.12-3.29c60.62,10.69,110.42,83.28,111,161.81C1220.07,403,1188.69,451.05,1144.93,462Z"/></clipPath></defs><g class="cls-2"><g class="cls-2"><g class="cls-3"><g class="cls-2"><path class="cls-4" d="M1097.39,434.78l13.12-3.28c1.08.19,2.15.35,3.22.49l-13.13,3.28c-1.07-.14-2.14-.3-3.21-.49" transform="translate(-986.59 -176.85)"/><path class="cls-5" d="M1100.6,435.27l13.13-3.28c1.4.18,2.79.31,4.18.4l-13.13,3.28c-1.38-.09-2.78-.22-4.18-.4" transform="translate(-986.59 -176.85)"/><path class="cls-6" d="M1104.78,435.67l13.13-3.28c1.55.1,3.08.15,4.6.14l-13.13,3.28c-1.52,0-3.05,0-4.6-.14" transform="translate(-986.59 -176.85)"/><path class="cls-7" d="M1109.38,435.81l13.13-3.28c1.68,0,3.35-.09,5-.23l-13.13,3.28c-1.65.14-3.31.22-5,.23" transform="translate(-986.59 -176.85)"/><path class="cls-8" d="M1114.38,435.58l13.13-3.28q2.87-.26,5.65-.76L1120,434.83c-1.85.33-3.74.58-5.65.75" transform="translate(-986.59 -176.85)"/><path class="cls-9" d="M1120,434.83l13.13-3.29c1.34-.24,2.66-.52,4-.85L1124,434c-1.31.32-2.63.61-4,.85" transform="translate(-986.59 -176.85)"/></g></g></g><g class="cls-2"><g class="cls-10"><g class="cls-2"><path class="cls-11" d="M1069.05,213.79l13.13-3.28a66,66,0,0,0-32.11,19.37l-13.13,3.29a66,66,0,0,1,32.11-19.38" transform="translate(-986.59 -176.85)"/><path class="cls-9" d="M1036.94,233.17l13.13-3.29a79.68,79.68,0,0,0-5.26,6.23l-13.13,3.28a79.86,79.86,0,0,1,5.26-6.22" transform="translate(-986.59 -176.85)"/><path class="cls-8" d="M1031.68,239.39l13.13-3.28q-1.92,2.52-3.69,5.23L1028,244.62c1.18-1.8,2.41-3.55,3.69-5.23" transform="translate(-986.59 -176.85)"/><path class="cls-7" d="M1028,244.62l13.13-3.28c-1,1.56-2,3.17-2.92,4.82l-13.13,3.28q1.41-2.48,2.92-4.82" transform="translate(-986.59 -176.85)"/><path class="cls-6" d="M1025.07,249.44l13.13-3.28q-1.28,2.25-2.45,4.62l-13.13,3.28q1.17-2.37,2.45-4.62" transform="translate(-986.59 -176.85)"/><path class="cls-5" d="M1022.62,254.06l13.13-3.28c-.72,1.44-1.4,2.92-2.06,4.42l-13.13,3.29c.66-1.51,1.35-3,2.06-4.43" transform="translate(-986.59 -176.85)"/><path class="cls-4" d="M1020.56,258.49l13.13-3.29q-.92,2.1-1.75,4.28l-13.13,3.28q.84-2.17,1.75-4.27" transform="translate(-986.59 -176.85)"/><path class="cls-12" d="M1018.81,262.76l13.13-3.28c-.54,1.41-1.06,2.85-1.55,4.31l-13.13,3.28c.49-1.46,1-2.89,1.55-4.31" transform="translate(-986.59 -176.85)"/><path class="cls-13" d="M1017.26,267.07l13.13-3.28c-.46,1.36-.9,2.75-1.31,4.16L1016,271.23c.41-1.4.85-2.79,1.31-4.16" transform="translate(-986.59 -176.85)"/><path class="cls-14" d="M1016,271.23l13.13-3.28c-.41,1.4-.8,2.81-1.16,4.24l-13.13,3.28c.36-1.43.75-2.84,1.16-4.24" transform="translate(-986.59 -176.85)"/><path class="cls-15" d="M1014.79,275.47l13.13-3.28c-.35,1.39-.68,2.79-1,4.22l-13.12,3.28c.3-1.42.63-2.83,1-4.22" transform="translate(-986.59 -176.85)"/><path class="cls-16" d="M1013.81,279.69l13.12-3.28q-.45,2.11-.84,4.29L1013,284q.38-2.18.84-4.29" transform="translate(-986.59 -176.85)"/><path class="cls-17" d="M1013,284l13.12-3.28c-.25,1.43-.48,2.88-.69,4.34l-13.13,3.28c.21-1.46.44-2.91.7-4.34" transform="translate(-986.59 -176.85)"/><path class="cls-18" d="M1012.27,288.32,1025.4,285c-.21,1.47-.4,3-.56,4.46l-13.13,3.28c.16-1.5.35-3,.56-4.46" transform="translate(-986.59 -176.85)"/><path class="cls-19" d="M1011.71,292.78l13.13-3.28c-.16,1.51-.3,3-.41,4.58l-13.13,3.28c.11-1.54.25-3.07.41-4.58" transform="translate(-986.59 -176.85)"/><path class="cls-20" d="M1011.3,297.36l13.13-3.28q-.18,2.37-.27,4.77L1011,302.13c.07-1.6.15-3.19.27-4.77" transform="translate(-986.59 -176.85)"/><path class="cls-21" d="M1011,302.13l13.13-3.28c-.06,1.64-.1,3.29-.1,5l-13.13,3.29c0-1.67,0-3.33.1-5" transform="translate(-986.59 -176.85)"/><path class="cls-22" d="M1010.93,307.1l13.13-3.29c0,.56,0,1.13,0,1.69,0,1.21,0,2.41.07,3.61L1011,312.4c0-1.21-.06-2.41-.07-3.62V307.1" transform="translate(-986.59 -176.85)"/><path class="cls-23" d="M1011,312.4l13.13-3.29c.06,1.81.15,3.62.28,5.42l-13.13,3.28c-.13-1.8-.22-3.6-.28-5.41" transform="translate(-986.59 -176.85)"/><path class="cls-24" d="M1011.28,317.81l13.13-3.28q.21,3,.54,6.05l-13.13,3.28c-.22-2-.4-4-.54-6.05" transform="translate(-986.59 -176.85)"/><path class="cls-25" d="M1011.82,323.86l13.13-3.28q.36,3.29.86,6.54l-13.12,3.28q-.51-3.25-.87-6.54" transform="translate(-986.59 -176.85)"/><path class="cls-26" d="M1012.69,330.4l13.12-3.28c.39,2.48.83,4.95,1.34,7.4L1014,337.81c-.5-2.45-.95-4.92-1.33-7.41" transform="translate(-986.59 -176.85)"/><path class="cls-27" d="M1014,337.81l13.13-3.29q1,4.74,2.23,9.36l-13.13,3.28c-.83-3.08-1.58-6.2-2.23-9.35" transform="translate(-986.59 -176.85)"/><path class="cls-28" d="M1016.25,347.16l13.13-3.28a152.89,152.89,0,0,0,5.67,16.85L1021.92,364a154.29,154.29,0,0,1-5.67-16.85" transform="translate(-986.59 -176.85)"/><path class="cls-29" d="M1021.92,364l13.13-3.28q2.37,5.88,5.18,11.44l-13.13,3.29q-2.8-5.56-5.18-11.45" transform="translate(-986.59 -176.85)"/><path class="cls-28" d="M1027.1,375.46l13.13-3.29a139.88,139.88,0,0,0,8.73,14.95l-13.13,3.29a141.88,141.88,0,0,1-8.73-15" transform="translate(-986.59 -176.85)"/><path class="cls-27" d="M1035.83,390.41l13.13-3.29q2.61,3.88,5.43,7.52l-13.12,3.29q-2.83-3.63-5.44-7.52" transform="translate(-986.59 -176.85)"/><path class="cls-26" d="M1041.27,397.93l13.12-3.29q2.19,2.82,4.5,5.46l-13.13,3.28q-2.31-2.64-4.49-5.45" transform="translate(-986.59 -176.85)"/><path class="cls-25" d="M1045.76,403.38l13.13-3.28c1.34,1.53,2.7,3,4.1,4.46l-13.13,3.28q-2.08-2.16-4.1-4.46" transform="translate(-986.59 -176.85)"/><path class="cls-24" d="M1049.86,407.84l13.13-3.28q1.9,2,3.89,3.84l-13.13,3.28q-2-1.86-3.89-3.84" transform="translate(-986.59 -176.85)"/><path class="cls-23" d="M1053.75,411.68l13.13-3.28q1.84,1.73,3.73,3.34L1057.49,415c-1.27-1.08-2.51-2.2-3.74-3.35" transform="translate(-986.59 -176.85)"/><path class="cls-22" d="M1057.49,415l13.12-3.29c1.17,1,2.35,2,3.54,2.9L1061,417.92c-1.19-.93-2.37-1.9-3.53-2.89" transform="translate(-986.59 -176.85)"/><path class="cls-21" d="M1061,417.92l13.13-3.28q1.75,1.37,3.54,2.64l-13.13,3.28q-1.79-1.28-3.54-2.64" transform="translate(-986.59 -176.85)"/><path class="cls-20" d="M1064.56,420.56l13.13-3.28c1.13.8,2.27,1.58,3.42,2.32L1068,422.89c-1.15-.75-2.29-1.53-3.42-2.33" transform="translate(-986.59 -176.85)"/><path class="cls-19" d="M1068,422.89l13.13-3.29c1.14.74,2.28,1.45,3.44,2.13L1071.42,425c-1.15-.68-2.3-1.39-3.44-2.12" transform="translate(-986.59 -176.85)"/><path class="cls-18" d="M1071.42,425l13.13-3.28c1.13.66,2.26,1.29,3.41,1.9l-13.13,3.28c-1.15-.6-2.28-1.24-3.41-1.9" transform="translate(-986.59 -176.85)"/><path class="cls-17" d="M1074.83,426.91l13.13-3.28c1.13.6,2.28,1.17,3.44,1.72l-13.13,3.28c-1.16-.54-2.3-1.12-3.44-1.72" transform="translate(-986.59 -176.85)"/><path class="cls-16" d="M1078.27,428.63l13.13-3.28c1.14.54,2.3,1,3.46,1.53l-13.12,3.29c-1.17-.49-2.32-1-3.47-1.54" transform="translate(-986.59 -176.85)"/><path class="cls-15" d="M1081.74,430.17l13.12-3.29q1.76.74,3.54,1.38l-13.13,3.28c-1.18-.43-2.36-.89-3.53-1.37" transform="translate(-986.59 -176.85)"/><path class="cls-14" d="M1085.27,431.54l13.13-3.28c1.19.43,2.4.83,3.61,1.19l-13.13,3.29c-1.21-.37-2.41-.77-3.61-1.2" transform="translate(-986.59 -176.85)"/><path class="cls-13" d="M1088.88,432.74l13.13-3.29c1.24.38,2.49.73,3.74,1l-13.12,3.28c-1.26-.31-2.51-.65-3.75-1" transform="translate(-986.59 -176.85)"/><path class="cls-12" d="M1092.63,433.77l13.12-3.28c1.28.31,2.57.6,3.86.84l-13.13,3.28c-1.29-.24-2.58-.52-3.85-.84" transform="translate(-986.59 -176.85)"/><path class="cls-4" d="M1096.48,434.61l13.13-3.28.9.17-13.12,3.28-.91-.17" transform="translate(-986.59 -176.85)"/></g></g></g><g class="cls-2"><g class="cls-30"><g class="cls-2"><path class="cls-9" d="M1061.24,182.49l13.13-3.28q2.52-.63,5.09-1.1l-13.13,3.29q-2.57.47-5.09,1.09" transform="translate(-986.59 -176.85)"/><path class="cls-8" d="M1066.33,181.4l13.13-3.29q3.58-.65,7.26-1l-13.13,3.28q-3.67.31-7.26,1" transform="translate(-986.59 -176.85)"/><path class="cls-7" d="M1073.59,180.43l13.13-3.28c2.12-.19,4.26-.28,6.42-.3L1080,180.13q-3.26,0-6.43.3" transform="translate(-986.59 -176.85)"/><path class="cls-6" d="M1080,180.13l13.12-3.28q2.94,0,5.91.18l-13.13,3.28q-3-.19-5.9-.18" transform="translate(-986.59 -176.85)"/><path class="cls-5" d="M1085.92,180.31l13.13-3.28c1.78.11,3.57.28,5.38.52l-13.13,3.28c-1.8-.23-3.6-.41-5.38-.52" transform="translate(-986.59 -176.85)"/><path class="cls-4" d="M1091.3,180.83l13.13-3.28c1.37.17,2.74.38,4.12.62l-13.12,3.29c-1.38-.25-2.76-.46-4.13-.63" transform="translate(-986.59 -176.85)"/></g></g></g><path class="cls-31" d="M1095.43,181.46c60.61,10.68,110.42,83.27,111,161.8S1158.24,477,1097.63,466.31,987.21,383,986.6,304.49,1034.81,170.77,1095.43,181.46Zm2,253.32c47.19,8.32,85.2-34.66,84.73-95.81s-39.25-117.66-86.45-126-85.21,34.65-84.74,95.79,39.26,117.68,86.46,126" transform="translate(-986.59 -176.85)"/><g class="cls-2"><g class="cls-32"><g class="cls-2"><path class="cls-4" d="M1095.43,181.46l13.12-3.29,1.17.22-13.13,3.28-1.16-.21" transform="translate(-986.59 -176.85)"/><path class="cls-12" d="M1096.59,181.67l13.13-3.28c1.65.31,3.31.67,5,1.08l-13.13,3.28c-1.64-.4-3.29-.77-5-1.08" transform="translate(-986.59 -176.85)"/><path class="cls-13" d="M1101.54,182.75l13.13-3.28q2.41.6,4.81,1.33l-13.13,3.28c-1.59-.49-3.2-.93-4.81-1.33" transform="translate(-986.59 -176.85)"/><path class="cls-14" d="M1106.35,184.08l13.13-3.28c1.55.47,3.1,1,4.63,1.54L1111,185.62c-1.53-.55-3.08-1.07-4.63-1.54" transform="translate(-986.59 -176.85)"/><path class="cls-15" d="M1111,185.62l13.13-3.28c1.52.54,3,1.13,4.54,1.76l-13.13,3.28c-1.5-.63-3-1.21-4.54-1.76" transform="translate(-986.59 -176.85)"/><path class="cls-16" d="M1115.52,187.38l13.13-3.28q2.25.93,4.45,2L1120,189.35q-2.21-1-4.45-2" transform="translate(-986.59 -176.85)"/><path class="cls-17" d="M1120,189.35l13.13-3.28q2.24,1.05,4.42,2.21l-13.13,3.28q-2.19-1.16-4.42-2.21" transform="translate(-986.59 -176.85)"/><path class="cls-18" d="M1124.39,191.56l13.13-3.28q2.2,1.17,4.38,2.44L1128.77,194q-2.18-1.27-4.38-2.44" transform="translate(-986.59 -176.85)"/><path class="cls-19" d="M1128.77,194l13.13-3.28c1.48.87,3,1.78,4.41,2.73l-13.12,3.28c-1.46-.95-2.93-1.85-4.42-2.73" transform="translate(-986.59 -176.85)"/><path class="cls-20" d="M1133.19,196.73l13.12-3.28q2.22,1.44,4.4,3l-13.13,3.29c-1.45-1-2.91-2-4.39-3" transform="translate(-986.59 -176.85)"/><path class="cls-21" d="M1137.58,199.72l13.13-3.29c1.53,1.09,3,2.23,4.54,3.4l-13.13,3.28c-1.49-1.17-3-2.3-4.54-3.39" transform="translate(-986.59 -176.85)"/><path class="cls-22" d="M1142.12,203.11l13.13-3.28c1.53,1.19,3,2.43,4.54,3.71l-13.12,3.28c-1.5-1.27-3-2.51-4.55-3.71" transform="translate(-986.59 -176.85)"/><path class="cls-23" d="M1146.67,206.82l13.12-3.28c1.63,1.39,3.22,2.82,4.8,4.3l-13.13,3.28q-2.36-2.22-4.79-4.3" transform="translate(-986.59 -176.85)"/><path class="cls-24" d="M1151.46,211.12l13.13-3.28c1.69,1.59,3.36,3.24,5,4.93l-13.13,3.28c-1.63-1.69-3.3-3.34-5-4.93" transform="translate(-986.59 -176.85)"/><path class="cls-25" d="M1156.46,216.05l13.13-3.28q2.69,2.78,5.26,5.72l-13.13,3.29c-1.71-2-3.47-3.88-5.26-5.73" transform="translate(-986.59 -176.85)"/><path class="cls-26" d="M1161.72,221.78l13.13-3.29q3,3.4,5.78,7l-13.13,3.28q-2.82-3.6-5.78-7" transform="translate(-986.59 -176.85)"/><path class="cls-27" d="M1167.5,228.78l13.13-3.28q3.61,4.67,7,9.66l-13.12,3.29q-3.36-5-7-9.67" transform="translate(-986.59 -176.85)"/><path class="cls-28" d="M1174.48,238.45l13.12-3.29a181.24,181.24,0,0,1,11.21,19.2l-13.12,3.28a180.09,180.09,0,0,0-11.21-19.19" transform="translate(-986.59 -176.85)"/><path class="cls-29" d="M1185.69,257.64l13.12-3.28q3.62,7.14,6.66,14.7l-13.13,3.28c-2-5-4.25-9.94-6.65-14.7" transform="translate(-986.59 -176.85)"/><path class="cls-28" d="M1192.34,272.34l13.13-3.28a196.31,196.31,0,0,1,7.28,21.64L1199.62,294a194.93,194.93,0,0,0-7.28-21.64" transform="translate(-986.59 -176.85)"/><path class="cls-27" d="M1199.62,294l13.13-3.28q1.61,5.93,2.86,12L1202.49,306q-1.26-6.08-2.87-12" transform="translate(-986.59 -176.85)"/><path class="cls-26" d="M1202.49,306l13.12-3.28q1,4.71,1.72,9.51l-13.13,3.28c-.49-3.19-1.07-6.36-1.71-9.51" transform="translate(-986.59 -176.85)"/><path class="cls-25" d="M1204.2,315.5l13.13-3.28q.64,4.17,1.11,8.39l-13.13,3.29q-.46-4.23-1.11-8.4" transform="translate(-986.59 -176.85)"/><path class="cls-24" d="M1205.31,323.9l13.13-3.29q.42,3.87.69,7.77L1206,331.67q-.27-3.9-.7-7.77" transform="translate(-986.59 -176.85)"/><path class="cls-23" d="M1206,331.67l13.12-3.29q.24,3.48.36,7l-13.13,3.28q-.1-3.48-.35-6.95" transform="translate(-986.59 -176.85)"/><path class="cls-22" d="M1206.36,338.62l13.13-3.28c0,1.54.08,3.09.09,4.64,0,.72,0,1.45,0,2.17l-13.12,3.28c0-.72,0-1.44,0-2.17,0-1.55,0-3.09-.09-4.64" transform="translate(-986.59 -176.85)"/><path class="cls-21" d="M1206.46,345.43l13.12-3.28c0,2.14,0,4.27-.13,6.37l-13.13,3.29q.12-3.17.14-6.38" transform="translate(-986.59 -176.85)"/><path class="cls-20" d="M1206.32,351.81l13.13-3.29c-.08,2.06-.19,4.11-.34,6.13L1206,357.93q.23-3,.34-6.12" transform="translate(-986.59 -176.85)"/><path class="cls-19" d="M1206,357.93l13.13-3.28c-.15,2-.32,3.94-.53,5.88l-13.13,3.29q.32-2.93.53-5.89" transform="translate(-986.59 -176.85)"/><path class="cls-18" d="M1205.45,363.82l13.13-3.29q-.32,2.89-.72,5.73l-13.13,3.28q.4-2.84.72-5.72" transform="translate(-986.59 -176.85)"/><path class="cls-17" d="M1204.73,369.54l13.13-3.28c-.27,1.88-.56,3.74-.89,5.58l-13.13,3.28q.5-2.76.89-5.58" transform="translate(-986.59 -176.85)"/><path class="cls-16" d="M1203.84,375.12l13.13-3.28c-.33,1.86-.69,3.69-1.08,5.51l-13.13,3.28q.59-2.72,1.08-5.51" transform="translate(-986.59 -176.85)"/><path class="cls-15" d="M1202.76,380.63l13.13-3.28c-.39,1.83-.82,3.63-1.27,5.41l-13.12,3.29c.45-1.79.87-3.59,1.26-5.42" transform="translate(-986.59 -176.85)"/><path class="cls-14" d="M1201.5,386.05l13.12-3.29c-.46,1.84-1,3.66-1.48,5.45L1200,391.49q.78-2.69,1.49-5.44" transform="translate(-986.59 -176.85)"/><path class="cls-13" d="M1200,391.49l13.13-3.28q-.81,2.71-1.69,5.35l-13.13,3.28c.6-1.75,1.16-3.54,1.69-5.35" transform="translate(-986.59 -176.85)"/><path class="cls-12" d="M1198.32,396.84l13.13-3.28c-.63,1.87-1.29,3.72-2,5.53l-13.13,3.28q1.05-2.72,2-5.53" transform="translate(-986.59 -176.85)"/><path class="cls-4" d="M1196.33,402.37l13.13-3.28c-.72,1.86-1.47,3.7-2.25,5.5l-13.13,3.28q1.18-2.7,2.25-5.5" transform="translate(-986.59 -176.85)"/><path class="cls-5" d="M1194.08,407.87l13.13-3.28c-.84,1.93-1.73,3.82-2.65,5.68l-13.12,3.28c.92-1.85,1.8-3.75,2.64-5.68" transform="translate(-986.59 -176.85)"/><path class="cls-6" d="M1191.44,413.55l13.12-3.28q-1.5,3-3.14,5.94l-13.13,3.28q1.64-2.89,3.15-5.94" transform="translate(-986.59 -176.85)"/><path class="cls-7" d="M1188.29,419.49l13.13-3.28q-1.8,3.18-3.76,6.18l-13.12,3.28q1.95-3,3.75-6.18" transform="translate(-986.59 -176.85)"/><path class="cls-8" d="M1184.54,425.67l13.12-3.28q-2.27,3.48-4.73,6.72l-13.13,3.28c1.65-2.15,3.22-4.39,4.74-6.72" transform="translate(-986.59 -176.85)"/><path class="cls-9" d="M1179.8,432.39l13.13-3.28q-3.23,4.22-6.76,8l-13.12,3.28a103.24,103.24,0,0,0,6.75-8" transform="translate(-986.59 -176.85)"/><path class="cls-11" d="M1173.05,440.39l13.12-3.28c-11.57,12.35-25.62,21-41.24,24.88l-13.12,3.28c15.62-3.9,29.66-12.53,41.24-24.88" transform="translate(-986.59 -176.85)"/></g></g></g></g></svg>