<svg id="Calque_1" data-name="Calque 1" xmlns="http://www.w3.org/2000/svg" xmlns:xlink="http://www.w3.org/1999/xlink" viewBox="0 0 84.5 334.27"><defs><style>.cls-1{fill:none;}.cls-2{isolation:isolate;}.cls-3{fill:#a9c7de;}.cls-4{clip-path:url(#clip-path);}.cls-5{fill:#a5c1df;}.cls-6{fill:#a4bedf;}.cls-7{fill:#a2bcdf;}.cls-8{fill:#a0b9df;}.cls-9{fill:#9eb7e0;}.cls-10{fill:#9cb4e0;}.cls-11{fill:#9bb1e0;}.cls-12{clip-path:url(#clip-path-2);}.cls-13{fill:#b4d6dd;}.cls-14{fill:#b2d4dd;}.cls-15{fill:#b0d1dd;}.cls-16{fill:#aecede;}.cls-17{fill:#adccde;}.cls-18{fill:#abc9de;}.cls-19{fill:#a9c6de;}.cls-20{fill:#a7c4df;}.cls-21{fill:#99afe0;}.cls-22{fill:#b8dcdc;}.cls-23{clip-path:url(#clip-path-3);}.cls-24{clip-path:url(#clip-path-4);}.cls-25{clip-path:url(#clip-path-5);}.cls-26{fill:#b6d9dd;}.cls-27{fill:#b7dcdd;}.cls-28{fill:#b9dedc;}.cls-29{fill:#bbe1dc;}.cls-30{fill:#bde3dc;}.cls-31{fill:#bfe6dc;}.cls-32{fill:#c0e9db;}.cls-33{fill:#c2ebdb;}.cls-34{clip-path:url(#clip-path-6);}.cls-35{fill:#a0badf;}</style><clipPath id="clip-path" transform="translate(-1634.43 -341.36)"><path class="cls-1" d="M1668,650l-13.38,4a12.27,12.27,0,0,1-6.55-.1l13.38-4.05A12.27,12.27,0,0,0,1668,650Z"/></clipPath><clipPath id="clip-path-2" transform="translate(-1634.43 -341.36)"><path class="cls-1" d="M1679,670.7l-13.38,4a18.53,18.53,0,0,0,7.81-4.78c2.84-2.84,5.13-7,6.83-12.39s2.58-12.42,2.6-21l13.38-4c0,8.53-.89,15.5-2.6,20.95s-4,9.55-6.83,12.38A18.56,18.56,0,0,1,1679,670.7Z"/></clipPath><clipPath id="clip-path-3" transform="translate(-1634.43 -341.36)"><path class="cls-1" d="M1683.23,522.86l13.38-4.05a17.35,17.35,0,0,1,6.47-1l-13.38,4A17.56,17.56,0,0,0,1683.23,522.86Z"/></clipPath><clipPath id="clip-path-4" transform="translate(-1634.43 -341.36)"><path class="cls-1" d="M1696.68,536.39l13.38-4a14.12,14.12,0,0,0-7.89,6.52q-5.68,9.2-5.73,28.59l-13.38,4q0-19.41,5.73-28.58A14.1,14.1,0,0,1,1696.68,536.39Z"/></clipPath><clipPath id="clip-path-5" transform="translate(-1634.43 -341.36)"><path class="cls-1" d="M1683.31,468.33l13.38-4.05q0,19.38,5.59,31.41t16.66,14.77l-13.38,4.05c-7.37-1.84-12.9-6.76-16.66-14.77S1683.28,481.25,1683.31,468.33Z"/></clipPath><clipPath id="clip-path-6" transform="translate(-1634.43 -341.36)"><path class="cls-1" d="M1653,349.85l13.38-4.05a35.65,35.65,0,0,1,11.45,5.24,36.34,36.34,0,0,1,9.72,10.11,53,53,0,0,1,6.76,15.77,85.91,85.91,0,0,1,2.5,22.23l-13.38,4.05A85.91,85.91,0,0,0,1681,381a53,53,0,0,0-6.76-15.77,36.34,36.34,0,0,0-9.72-10.11A35.65,35.65,0,0,0,1653,349.85Z"/></clipPath></defs><g class="cls-2"><polygon class="cls-3" points="0.05 309.2 13.43 305.15 27.01 308.53 13.63 312.58 0.05 309.2"/><g class="cls-2"><g class="cls-4"><g class="cls-2"><path class="cls-5" d="M1648.06,653.94l13.38-4.05.79.18-13.38,4-.79-.18" transform="translate(-1634.43 -341.36)"/><path class="cls-6" d="M1648.85,654.12l13.38-4c.34.07.68.13,1,.17l-13.38,4.06-1-.18" transform="translate(-1634.43 -341.36)"/><path class="cls-7" d="M1649.86,654.3l13.38-4.06c.32,0,.64.09,1,.11l-13.38,4c-.32,0-.64-.06-1-.1" transform="translate(-1634.43 -341.36)"/><path class="cls-8" d="M1650.82,654.4l13.38-4c.31,0,.62,0,.92,0l-13.38,4.05c-.3,0-.61,0-.92,0" transform="translate(-1634.43 -341.36)"/><path class="cls-9" d="M1651.74,654.44l13.38-4.05c.31,0,.62,0,.92,0l-13.38,4c-.3,0-.61,0-.92,0" transform="translate(-1634.43 -341.36)"/><path class="cls-10" d="M1652.66,654.4l13.38-4a7.47,7.47,0,0,0,1-.12l-13.38,4a7.47,7.47,0,0,1-.95.12" transform="translate(-1634.43 -341.36)"/><path class="cls-11" d="M1653.61,654.28l13.38-4a8.1,8.1,0,0,0,1-.24l-13.38,4a8.1,8.1,0,0,1-1,.24" transform="translate(-1634.43 -341.36)"/></g></g></g><g class="cls-2"><g class="cls-12"><g class="cls-2"><path class="cls-13" d="M1682.9,636.63l13.38-4c0,.4,0,.8,0,1.19l-13.37,4.06v-1.2" transform="translate(-1634.43 -341.36)"/><path class="cls-14" d="M1682.9,637.83l13.37-4.06c0,1.35,0,2.65-.11,3.91l-13.38,4.05q.09-1.89.12-3.9" transform="translate(-1634.43 -341.36)"/><path class="cls-15" d="M1682.78,641.73l13.38-4.05c-.05,1.13-.12,2.23-.21,3.29l-13.38,4c.09-1.06.16-2.16.21-3.29" transform="translate(-1634.43 -341.36)"/><path class="cls-16" d="M1682.57,645l13.38-4c-.08,1-.18,1.91-.29,2.82l-13.37,4.05c.1-.91.2-1.85.28-2.82" transform="translate(-1634.43 -341.36)"/><path class="cls-17" d="M1682.29,647.84l13.37-4.05c-.1.85-.21,1.67-.33,2.47l-13.38,4c.12-.8.23-1.62.34-2.47" transform="translate(-1634.43 -341.36)"/><path class="cls-18" d="M1682,650.31l13.38-4c-.12.75-.25,1.48-.38,2.18l-13.38,4.06c.13-.71.26-1.44.38-2.19" transform="translate(-1634.43 -341.36)"/><path class="cls-19" d="M1681.57,652.5l13.38-4.06c-.14.68-.28,1.33-.42,2l-13.38,4.05c.15-.64.29-1.29.42-2" transform="translate(-1634.43 -341.36)"/><path class="cls-20" d="M1681.15,654.46l13.38-4.05c-.15.61-.3,1.21-.46,1.79l-13.38,4c.16-.58.31-1.18.46-1.79" transform="translate(-1634.43 -341.36)"/><path class="cls-5" d="M1680.69,656.25l13.38-4-.39,1.33c-.06.17-.11.33-.16.5l-13.38,4.05c0-.17.1-.33.16-.5.13-.43.26-.88.39-1.33" transform="translate(-1634.43 -341.36)"/><path class="cls-6" d="M1680.14,658.08l13.38-4.05c-.23.69-.46,1.35-.7,2l-13.38,4.05c.24-.65.47-1.31.7-2" transform="translate(-1634.43 -341.36)"/><path class="cls-7" d="M1679.44,660.08l13.38-4.05c-.25.64-.5,1.26-.76,1.86l-13.38,4.05c.26-.6.51-1.22.76-1.86" transform="translate(-1634.43 -341.36)"/><path class="cls-8" d="M1678.68,661.94l13.38-4.05c-.26.61-.54,1.2-.82,1.76l-13.38,4.05c.28-.56.56-1.15.82-1.76" transform="translate(-1634.43 -341.36)"/><path class="cls-9" d="M1677.86,663.7l13.38-4.05c-.3.59-.61,1.16-.92,1.7l-13.38,4c.31-.54.62-1.11.92-1.7" transform="translate(-1634.43 -341.36)"/><path class="cls-10" d="M1676.94,665.4l13.38-4c-.35.6-.72,1.16-1.09,1.7l-13.38,4.05c.37-.53.74-1.1,1.09-1.7" transform="translate(-1634.43 -341.36)"/><path class="cls-11" d="M1675.85,667.1l13.38-4.05a22.11,22.11,0,0,1-1.41,1.83l-13.38,4a22.11,22.11,0,0,0,1.41-1.83" transform="translate(-1634.43 -341.36)"/><path class="cls-21" d="M1674.44,668.93l13.38-4c-.32.36-.64.71-1,1a18.56,18.56,0,0,1-7.81,4.79l-13.38,4a18.53,18.53,0,0,0,7.81-4.78c.33-.33.65-.68,1-1" transform="translate(-1634.43 -341.36)"/></g></g></g><polygon class="cls-22" points="48.63 230.14 62.01 226.09 61.85 291.22 48.47 295.27 48.63 230.14"/><g class="cls-2"><g class="cls-23"><g class="cls-2"><path class="cls-11" d="M1683.23,522.86l13.38-4.05a25.91,25.91,0,0,1,3.08-.76l-13.38,4.05a28,28,0,0,0-3.08.76" transform="translate(-1634.43 -341.36)"/><path class="cls-10" d="M1686.31,522.1l13.38-4.05c.56-.1,1.09-.17,1.58-.21l-13.38,4c-.49,0-1,.11-1.58.21" transform="translate(-1634.43 -341.36)"/><path class="cls-9" d="M1687.89,521.89l13.38-4c.34,0,.66,0,1,0l-13.38,4.05c-.31,0-.63,0-1,0" transform="translate(-1634.43 -341.36)"/><path class="cls-8" d="M1688.86,521.85l13.38-4.05.67,0-13.38,4.06c-.22,0-.44,0-.67,0" transform="translate(-1634.43 -341.36)"/><path class="cls-7" d="M1689.53,521.88l13.38-4.06.17,0-13.38,4h-.17" transform="translate(-1634.43 -341.36)"/></g></g></g><g class="cls-2"><g class="cls-24"><g class="cls-2"><path class="cls-21" d="M1696.68,536.39l13.38-4a13,13,0,0,0-6.11,4.09l-13.38,4.05a13,13,0,0,1,6.11-4.09" transform="translate(-1634.43 -341.36)"/><path class="cls-11" d="M1690.57,540.48l13.38-4.05a15.49,15.49,0,0,0-1.14,1.47L1689.43,542a16.88,16.88,0,0,1,1.14-1.47" transform="translate(-1634.43 -341.36)"/><path class="cls-10" d="M1689.43,542l13.38-4.05c-.22.31-.43.63-.64,1l-.27.47-13.38,4,.27-.46c.21-.34.42-.66.64-1" transform="translate(-1634.43 -341.36)"/><path class="cls-9" d="M1688.52,543.38l13.38-4c-.28.46-.54.94-.79,1.45l-13.38,4.05c.25-.51.51-1,.79-1.45" transform="translate(-1634.43 -341.36)"/><path class="cls-8" d="M1687.73,544.83l13.38-4.05c-.24.47-.47,1-.68,1.45l-13.38,4.06c.22-.51.44-1,.68-1.46" transform="translate(-1634.43 -341.36)"/><path class="cls-7" d="M1687.05,546.29l13.38-4.06c-.22.49-.42,1-.62,1.52l-13.38,4c.2-.52.4-1,.62-1.51" transform="translate(-1634.43 -341.36)"/><path class="cls-6" d="M1686.43,547.8l13.38-4c-.19.52-.38,1-.56,1.6l-13.38,4c.18-.55.37-1.08.56-1.6" transform="translate(-1634.43 -341.36)"/><path class="cls-5" d="M1685.87,549.4l13.38-4q-.27.82-.51,1.71l-13.38,4.05q.24-.89.51-1.71" transform="translate(-1634.43 -341.36)"/><path class="cls-20" d="M1685.36,551.11l13.38-4.05c-.17.6-.33,1.22-.47,1.85L1684.89,553c.15-.63.3-1.25.47-1.85" transform="translate(-1634.43 -341.36)"/><path class="cls-19" d="M1684.89,553l13.38-4.05c-.16.66-.3,1.34-.44,2l-13.38,4c.14-.7.28-1.37.44-2" transform="translate(-1634.43 -341.36)"/><path class="cls-18" d="M1684.45,555l13.38-4c-.14.74-.27,1.49-.4,2.27l-13.37,4c.12-.78.25-1.53.39-2.27" transform="translate(-1634.43 -341.36)"/><path class="cls-17" d="M1684.06,557.27l13.37-4c-.12.83-.24,1.68-.35,2.56l-13.38,4.05c.11-.88.23-1.73.36-2.56" transform="translate(-1634.43 -341.36)"/><path class="cls-16" d="M1683.7,559.83l13.38-4.05c-.11,1-.21,1.93-.29,2.93l-13.38,4c.08-1,.18-2,.29-2.93" transform="translate(-1634.43 -341.36)"/><path class="cls-15" d="M1683.41,562.76l13.38-4c-.09,1.11-.17,2.25-.22,3.42l-13.38,4c.06-1.17.13-2.31.22-3.42" transform="translate(-1634.43 -341.36)"/><path class="cls-14" d="M1683.19,566.18l13.38-4q-.09,2-.12,4.08l-13.38,4q0-2.1.12-4.08" transform="translate(-1634.43 -341.36)"/><path class="cls-13" d="M1683.07,570.26l13.38-4c0,.41,0,.82,0,1.24l-13.38,4c0-.42,0-.83,0-1.24" transform="translate(-1634.43 -341.36)"/></g></g></g><polygon class="cls-3" points="0.79 4.05 14.17 0 31.98 4.44 18.61 8.49 0.79 4.05"/><polygon class="cls-22" points="71.13 173.15 84.5 169.1 84.45 191.05 71.07 195.1 71.13 173.15"/><g class="cls-2"><g class="cls-25"><g class="cls-2"><path class="cls-13" d="M1683.31,468.33l13.38-4.05c0,1.12,0,2.21,0,3.29l-13.38,4.05c0-1.08,0-2.17,0-3.29" transform="translate(-1634.43 -341.36)"/><path class="cls-26" d="M1683.35,471.62l13.38-4.05c0,1.41.09,2.78.17,4.12l-13.38,4.05c-.08-1.34-.14-2.71-.17-4.12" transform="translate(-1634.43 -341.36)"/><path class="cls-27" d="M1683.52,475.74l13.38-4.05c.08,1.28.17,2.53.3,3.76l-13.38,4.05c-.12-1.23-.22-2.48-.3-3.76" transform="translate(-1634.43 -341.36)"/><path class="cls-28" d="M1683.82,479.5l13.38-4.05c.11,1.19.25,2.36.41,3.5L1684.23,483c-.16-1.14-.3-2.31-.41-3.5" transform="translate(-1634.43 -341.36)"/><path class="cls-29" d="M1684.23,483l13.38-4.05c.16,1.15.34,2.27.54,3.37l-13.37,4.05c-.21-1.1-.39-2.22-.55-3.37" transform="translate(-1634.43 -341.36)"/><path class="cls-30" d="M1684.78,486.37l13.37-4.05c.22,1.15.45,2.27.71,3.37l-13.38,4.05c-.25-1.1-.49-2.22-.7-3.37" transform="translate(-1634.43 -341.36)"/><path class="cls-31" d="M1685.48,489.74l13.38-4.05c.3,1.25.63,2.47,1,3.64l-13.38,4.05c-.36-1.17-.69-2.39-1-3.64" transform="translate(-1634.43 -341.36)"/><path class="cls-32" d="M1686.47,493.38l13.38-4.05a47.36,47.36,0,0,0,2.43,6.35l-13.38,4.06a49.47,49.47,0,0,1-2.43-6.36" transform="translate(-1634.43 -341.36)"/><path class="cls-33" d="M1688.9,499.74l13.38-4.06h0v0l-13.38,4.05v0h0" transform="translate(-1634.43 -341.36)"/><path class="cls-32" d="M1688.91,499.76l13.38-4.05a33.16,33.16,0,0,0,2.85,5l-13.38,4.05a35,35,0,0,1-2.85-5" transform="translate(-1634.43 -341.36)"/><path class="cls-31" d="M1691.76,504.75l13.38-4.05c.39.57.8,1.11,1.22,1.63L1693,506.39c-.42-.53-.83-1.07-1.22-1.64" transform="translate(-1634.43 -341.36)"/><path class="cls-30" d="M1693,506.39l13.38-4.06c.32.41.65.79,1,1.17L1694,507.55c-.34-.37-.67-.76-1-1.16" transform="translate(-1634.43 -341.36)"/><path class="cls-29" d="M1694,507.55l13.38-4.05c.29.32.59.64.9.94l-13.38,4.05c-.31-.3-.61-.61-.9-.94" transform="translate(-1634.43 -341.36)"/><path class="cls-28" d="M1694.87,508.49l13.38-4.05c.28.28.56.55.85.81l-13.38,4.05c-.29-.26-.57-.53-.85-.81" transform="translate(-1634.43 -341.36)"/><path class="cls-27" d="M1695.72,509.3l13.38-4.05c.27.24.54.48.82.71L1696.54,510c-.28-.23-.55-.47-.82-.71" transform="translate(-1634.43 -341.36)"/><path class="cls-26" d="M1696.54,510l13.38-4.05.81.64-13.38,4-.81-.64" transform="translate(-1634.43 -341.36)"/><path class="cls-13" d="M1697.35,510.65l13.38-4,.83.59-13.38,4.05-.83-.59" transform="translate(-1634.43 -341.36)"/><path class="cls-14" d="M1698.18,511.24l13.38-4.05c.27.18.56.37.84.54l-13.38,4q-.42-.25-.84-.54" transform="translate(-1634.43 -341.36)"/><path class="cls-15" d="M1699,511.78l13.38-4,.87.51-13.38,4q-.44-.24-.87-.51" transform="translate(-1634.43 -341.36)"/><path class="cls-16" d="M1699.89,512.29l13.38-4c.3.17.61.33.92.48l-13.38,4c-.31-.15-.62-.31-.92-.48" transform="translate(-1634.43 -341.36)"/><path class="cls-17" d="M1700.81,512.77l13.38-4,1,.46-13.38,4.05-1-.46" transform="translate(-1634.43 -341.36)"/><path class="cls-18" d="M1701.78,513.23l13.38-4.05c.34.15.69.29,1,.42l-13.38,4c-.35-.13-.7-.27-1-.42" transform="translate(-1634.43 -341.36)"/><path class="cls-19" d="M1702.82,513.65l13.38-4c.37.14.75.28,1.13.4l-13.38,4c-.38-.12-.76-.25-1.13-.4" transform="translate(-1634.43 -341.36)"/><path class="cls-20" d="M1704,514.05l13.38-4c.42.13.83.26,1.26.37l-13.38,4c-.43-.11-.84-.23-1.26-.37" transform="translate(-1634.43 -341.36)"/><path class="cls-5" d="M1705.21,514.42l13.38-4,.35.09-13.38,4.05-.35-.09" transform="translate(-1634.43 -341.36)"/></g></g></g><polygon class="cls-22" points="49.04 61.85 62.42 57.8 62.26 122.93 48.88 126.98 49.04 61.85"/><g class="cls-2"><g class="cls-34"><g class="cls-2"><path class="cls-5" d="M1653,349.85l13.38-4.05.46.12L1653.5,350l-.46-.12" transform="translate(-1634.43 -341.36)"/><path class="cls-20" d="M1653.5,350l13.38-4.05c.56.14,1.12.31,1.67.49l-13.38,4c-.55-.18-1.11-.34-1.67-.49" transform="translate(-1634.43 -341.36)"/><path class="cls-19" d="M1655.17,350.46l13.38-4c.54.17,1.08.36,1.61.57l-13.38,4c-.53-.21-1.07-.4-1.61-.57" transform="translate(-1634.43 -341.36)"/><path class="cls-18" d="M1656.78,351l13.38-4c.53.2,1,.41,1.57.64l-13.38,4.05c-.52-.23-1-.44-1.57-.64" transform="translate(-1634.43 -341.36)"/><path class="cls-17" d="M1658.35,351.67l13.38-4.05c.52.22,1,.47,1.54.72l-13.38,4.05c-.51-.25-1-.49-1.54-.72" transform="translate(-1634.43 -341.36)"/><path class="cls-16" d="M1659.89,352.39l13.38-4.05c.52.26,1,.52,1.54.81l-13.38,4.05c-.51-.28-1-.55-1.54-.81" transform="translate(-1634.43 -341.36)"/><path class="cls-15" d="M1661.43,353.2l13.38-4.05c.52.29,1,.59,1.55.91L1663,354.11c-.51-.32-1-.62-1.55-.91" transform="translate(-1634.43 -341.36)"/><path class="cls-14" d="M1663,354.11l13.38-4.05c.48.29,1,.6,1.43.92l-13.38,4c-.47-.32-1-.63-1.43-.92" transform="translate(-1634.43 -341.36)"/><path class="cls-13" d="M1664.41,355l13.38-4,.08.06c.37.24.72.5,1.08.77l-13.38,4.05c-.35-.27-.71-.52-1.08-.77l-.08-.06" transform="translate(-1634.43 -341.36)"/><path class="cls-26" d="M1665.57,355.86l13.38-4.05c.39.29.78.6,1.16.91l-13.38,4c-.38-.31-.77-.62-1.16-.91" transform="translate(-1634.43 -341.36)"/><path class="cls-27" d="M1666.73,356.77l13.38-4c.4.33.79.67,1.18,1l-13.38,4.05c-.39-.35-.78-.69-1.18-1" transform="translate(-1634.43 -341.36)"/><path class="cls-28" d="M1667.91,357.79l13.38-4.05c.41.37.82.76,1.22,1.16L1669.13,359c-.4-.4-.8-.79-1.22-1.16" transform="translate(-1634.43 -341.36)"/><path class="cls-29" d="M1669.13,359l13.38-4.05c.44.44.88.89,1.31,1.36l-13.38,4.05c-.43-.47-.86-.92-1.31-1.36" transform="translate(-1634.43 -341.36)"/><path class="cls-30" d="M1670.44,360.31l13.38-4.05c.49.55,1,1.11,1.45,1.7L1671.89,362c-.48-.59-1-1.15-1.45-1.7" transform="translate(-1634.43 -341.36)"/><path class="cls-31" d="M1671.89,362l13.38-4.05q.9,1.13,1.77,2.37l-13.38,4.05c-.58-.83-1.17-1.61-1.77-2.37" transform="translate(-1634.43 -341.36)"/><path class="cls-32" d="M1673.66,364.38l13.38-4.05c.18.27.37.54.55.82a42.7,42.7,0,0,1,2.71,4.73l-13.38,4.05a41.17,41.17,0,0,0-2.71-4.73c-.18-.28-.37-.55-.55-.82" transform="translate(-1634.43 -341.36)"/><path class="cls-33" d="M1676.92,369.93l13.38-4.05c.14.28.28.57.41.85l-13.38,4c-.13-.28-.27-.57-.41-.85" transform="translate(-1634.43 -341.36)"/><path class="cls-32" d="M1677.33,370.78l13.38-4a58.33,58.33,0,0,1,2.91,7.65l-13.38,4.05a58.33,58.33,0,0,0-2.91-7.65" transform="translate(-1634.43 -341.36)"/><path class="cls-31" d="M1680.24,378.43l13.38-4.05c.26.83.5,1.68.73,2.54l.42,1.66-13.38,4.05c-.14-.56-.27-1.11-.42-1.66-.23-.86-.47-1.71-.73-2.54" transform="translate(-1634.43 -341.36)"/><path class="cls-30" d="M1681.39,382.63l13.38-4.05c.25,1,.47,2.12.68,3.22l-13.38,4.05c-.21-1.1-.43-2.18-.68-3.22" transform="translate(-1634.43 -341.36)"/><path class="cls-29" d="M1682.07,385.85l13.38-4.05c.19,1.05.36,2.13.52,3.23l-13.38,4.05c-.16-1.1-.33-2.18-.52-3.23" transform="translate(-1634.43 -341.36)"/><path class="cls-28" d="M1682.59,389.08,1696,385c.15,1.1.28,2.22.4,3.37L1683,392.45c-.12-1.15-.25-2.27-.4-3.37" transform="translate(-1634.43 -341.36)"/><path class="cls-27" d="M1683,392.45l13.38-4.05c.11,1.18.21,2.39.28,3.62l-13.38,4.05c-.07-1.23-.17-2.44-.28-3.62" transform="translate(-1634.43 -341.36)"/><path class="cls-26" d="M1683.27,396.07l13.38-4.05c.08,1.29.14,2.61.17,4L1683.44,400c0-1.35-.09-2.68-.17-4" transform="translate(-1634.43 -341.36)"/><path class="cls-13" d="M1683.44,400l13.38-4.05c0,1,0,2.09,0,3.16l-13.38,4.05c0-1.07,0-2.13,0-3.16" transform="translate(-1634.43 -341.36)"/></g></g></g><path class="cls-35" d="M1653,349.85a35.65,35.65,0,0,1,11.45,5.24,36.34,36.34,0,0,1,9.72,10.11A53,53,0,0,1,1681,381a85.91,85.91,0,0,1,2.5,22.23l-.16,65.13q0,19.38,5.59,31.41c3.76,8,9.29,12.93,16.66,14.77l-.06,22q-11-2.76-16.71,6.46t-5.73,28.58l-.16,65.13c0,8.53-.89,15.5-2.6,21s-4,9.55-6.83,12.39a18.25,18.25,0,0,1-9.76,5.25,27.09,27.09,0,0,1-11.46-.48l-17.82-4.44,0-19.75,13.58,3.39q5.09,1.26,8.34-.68a12.15,12.15,0,0,0,5-5.9,31.83,31.83,0,0,0,2.28-9.32,91.24,91.24,0,0,0,.6-10.46l.16-65.13c0-8.79,1-15.9,3-21.4s4.37-9.65,7.1-12.5a20.17,20.17,0,0,1,8.37-5.59,18.14,18.14,0,0,1,6.8-1.07c-1.7-1.38-4-2.87-6.79-5.15a42,42,0,0,1-8.33-9.77,64.07,64.07,0,0,1-7-16,78.24,78.24,0,0,1-2.92-22.86l.16-65.14a101.35,101.35,0,0,0-.55-10.75,44.51,44.51,0,0,0-2.23-10.44,23.89,23.89,0,0,0-4.93-8.36,16.29,16.29,0,0,0-8.32-4.83l-13.58-3.38,0-19.76Z" transform="translate(-1634.43 -341.36)"/></g></svg>