<svg id="Calque_1" data-name="Calque 1" xmlns="http://www.w3.org/2000/svg" xmlns:xlink="http://www.w3.org/1999/xlink" viewBox="0 0 211.78 926.22"><defs><style>.cls-1{fill:none;}.cls-2{isolation:isolate;}.cls-3{fill:#c4c4f5;}.cls-4{fill:#ebebfc;}.cls-5{fill:#d3d3f8;}.cls-6{clip-path:url(#clip-path);}.cls-7{fill:#b7b7f3;}.cls-8{fill:#babaf4;}.cls-9{fill:#bdbdf4;}.cls-10{fill:#c0c0f5;}.cls-11{fill:#c3c3f5;}.cls-12{fill:#c6c6f6;}.cls-13{fill:#c9c9f6;}.cls-14{fill:#ccccf7;}.cls-15{fill:#cfcff7;}.cls-16{fill:#d2d2f7;}.cls-17{fill:#d5d5f8;}.cls-18{fill:#d8d8f9;}.cls-19{fill:#dbdbf9;}.cls-20{clip-path:url(#clip-path-2);}.cls-21{clip-path:url(#clip-path-3);}.cls-22{clip-path:url(#clip-path-4);}.cls-23{clip-path:url(#clip-path-5);}.cls-24{clip-path:url(#clip-path-6);}</style><clipPath id="clip-path" transform="translate(-1422.67 -2.2)"><path class="cls-1" d="M1527.85,785.35q1.1-391.59,2.17-783.15l-.82,783.06a1.83,1.83,0,0,0-1-.09C1528,785.2,1527.85,785.27,1527.85,785.35Z"/></clipPath><clipPath id="clip-path-2" transform="translate(-1422.67 -2.2)"><path class="cls-1" d="M1530,2.2l-.82,783.06a1.83,1.83,0,0,0-1-.09c-.25,0-.4.1-.4.18Q1528.95,393.76,1530,2.2Z"/></clipPath><clipPath id="clip-path-3" transform="translate(-1422.67 -2.2)"><path class="cls-1" d="M1527.85,785.35q1.1-391.59,2.17-783.15-.37,391.59-.74,783.15c0,.07-.15.14-.4.18a1.92,1.92,0,0,1-1-.1S1527.85,785.38,1527.85,785.35Z"/></clipPath><clipPath id="clip-path-4" transform="translate(-1422.67 -2.2)"><path class="cls-1" d="M1530,2.2l-.74,783.15c0,.07-.15.14-.4.18a1.92,1.92,0,0,1-1-.1s-.08,0-.08-.08Q1528.95,393.76,1530,2.2Z"/></clipPath><clipPath id="clip-path-5" transform="translate(-1422.67 -2.2)"><path class="cls-1" d="M1530,2.2l-.74,783.15s0-.06-.08-.09Z"/></clipPath><clipPath id="clip-path-6" transform="translate(-1422.67 -2.2)"><path class="cls-1" d="M1529.28,785.35s0-.06-.08-.09L1530,2.2Q1529.65,393.79,1529.28,785.35Z"/></clipPath></defs><g class="cls-2"><polygon class="cls-3" points="37.52 720.85 37.46 744.96 18.82 740.31 18.88 716.2 37.52 720.85"/><polygon class="cls-4" points="37.52 720.85 44.2 718.82 44.15 742.93 37.46 744.96 37.52 720.85"/><polygon class="cls-5" points="18.88 716.2 25.57 714.17 44.2 718.82 37.52 720.85 18.88 716.2"/></g><g class="cls-2"><polygon class="cls-3" points="56.15 725.49 56.09 749.6 37.46 744.96 37.52 720.85 56.15 725.49"/><polygon class="cls-4" points="56.15 725.49 62.84 723.47 62.78 747.58 56.09 749.6 56.15 725.49"/><polygon class="cls-5" points="37.52 720.85 44.2 718.82 62.84 723.47 56.15 725.49 37.52 720.85"/></g><g class="cls-2"><polygon class="cls-4" points="18.7 788.34 25.39 786.32 25.33 810.01 18.64 812.04 18.7 788.34"/><polygon class="cls-3" points="18.7 787.93 18.7 788.34 18.64 812.04 0 807.39 0.06 783.28 18.7 787.93"/><polygon class="cls-4" points="18.7 787.93 25.39 785.9 25.39 786.32 18.7 788.34 18.7 787.93"/><polygon class="cls-5" points="0.06 783.28 6.75 781.25 25.39 785.9 18.7 787.93 0.06 783.28"/><polygon class="cls-3" points="37.4 768.87 37.34 792.99 18.7 788.34 18.7 787.93 18.76 764.22 37.4 768.87"/><polygon class="cls-4" points="37.4 768.87 44.09 766.84 44.03 790.96 37.34 792.99 37.4 768.87"/><polygon class="cls-5" points="18.76 764.22 25.45 762.2 44.09 766.84 37.4 768.87 18.76 764.22"/></g><g class="cls-2"><polygon class="cls-4" points="18.53 860.47 25.22 858.45 25.21 862.51 18.52 864.53 18.53 860.47"/><polygon class="cls-3" points="37.16 865.12 37.1 889.24 18.47 884.59 18.52 864.53 18.53 860.47 37.16 865.12"/><polygon class="cls-4" points="37.16 865.12 43.85 863.1 43.79 887.22 37.1 889.24 37.16 865.12"/><polygon class="cls-5" points="18.53 860.47 25.22 858.45 43.85 863.1 37.16 865.12 18.53 860.47"/><polygon class="cls-3" points="37.22 841.01 37.16 865.12 18.53 860.47 18.52 864.53 18.59 836.36 37.22 841.01"/><polygon class="cls-4" points="37.22 841.01 43.91 838.99 43.85 863.1 37.16 865.12 37.22 841.01"/><polygon class="cls-5" points="18.59 836.36 25.27 834.34 43.91 838.99 37.22 841.01 18.59 836.36"/></g><g class="cls-2"><polygon class="cls-4" points="55.92 821.75 62.61 819.72 62.55 843.63 55.86 845.66 55.92 821.75"/><polygon class="cls-3" points="55.92 821.55 55.92 821.75 55.86 845.66 37.22 841.01 37.28 816.9 55.92 821.55"/><polygon class="cls-4" points="55.92 821.55 62.61 819.52 62.61 819.72 55.92 821.75 55.92 821.55"/><polygon class="cls-5" points="37.28 816.9 43.97 814.87 62.61 819.52 55.92 821.55 37.28 816.9"/></g><g class="cls-2"><polygon class="cls-3" points="93.14 854.95 93.08 879.06 74.44 874.42 74.5 850.31 93.14 854.95"/><polygon class="cls-4" points="93.14 854.95 99.83 852.93 99.77 877.04 93.08 879.06 93.14 854.95"/><polygon class="cls-5" points="74.5 850.31 81.19 848.28 99.83 852.93 93.14 854.95 74.5 850.31"/></g><g class="cls-2"><polygon class="cls-4" points="55.98 797.22 62.67 795.19 62.67 795.61 55.98 797.63 55.98 797.22"/><polygon class="cls-5" points="37.4 768.87 44.09 766.84 62.73 771.49 56.03 773.52 37.4 768.87"/><polygon class="cls-5" points="55.98 797.22 62.67 795.19 75.51 798.4 68.82 800.42 55.98 797.22"/><polygon class="cls-3" points="68.88 776.72 68.82 800.42 55.98 797.22 55.98 797.63 37.34 792.99 37.4 768.87 56.03 773.52 68.88 776.72"/><polygon class="cls-4" points="68.88 776.72 75.57 774.69 75.51 798.4 68.82 800.42 68.88 776.72"/><polygon class="cls-5" points="56.03 773.52 62.73 771.49 75.57 774.69 68.88 776.72 56.03 773.52"/><polygon class="cls-5" points="68.88 776.72 75.57 774.69 81.37 776.14 74.68 778.16 68.88 776.72"/><polygon class="cls-4" points="93.2 831.04 99.89 829.01 99.83 852.93 93.14 854.95 93.2 831.04"/><polygon class="cls-4" points="93.2 830.84 99.89 828.82 99.89 829.01 93.2 831.04 93.2 830.84"/><polygon class="cls-5" points="74.56 826.2 81.25 824.17 99.89 828.82 93.2 830.84 74.56 826.2"/><polygon class="cls-3" points="93.2 830.84 93.2 831.04 93.14 854.95 74.5 850.31 74.56 826.39 74.56 826.2 93.2 830.84"/><polygon class="cls-4" points="74.74 754.05 81.43 752.03 81.37 776.14 74.68 778.16 74.74 754.05"/><polygon class="cls-5" points="56.09 749.4 62.78 747.38 81.43 752.03 74.74 754.05 56.09 749.4"/><polygon class="cls-3" points="74.74 754.05 74.68 778.16 68.88 776.72 56.03 773.52 56.09 749.4 74.74 754.05"/><polygon class="cls-4" points="111.78 859.4 118.47 857.38 118.47 857.57 111.78 859.6 111.78 859.4"/><polygon class="cls-3" points="130.42 864.05 130.36 888.16 111.72 883.51 111.78 859.6 111.78 859.4 130.42 864.05"/><polygon class="cls-4" points="130.42 864.05 137.11 862.02 137.05 886.13 130.36 888.16 130.42 864.05"/><polygon class="cls-5" points="111.78 859.4 118.47 857.38 137.11 862.02 130.42 864.05 111.78 859.4"/><polygon class="cls-4" points="124.41 838.62 131.1 836.6 131.1 836.8 124.41 838.82 124.41 838.62"/><polygon class="cls-5" points="111.84 835.49 118.53 833.46 131.1 836.6 124.41 838.62 111.84 835.49"/><polygon class="cls-3" points="124.41 838.62 124.41 838.82 130.48 840.34 130.42 864.05 111.78 859.4 111.78 859.6 111.84 835.69 111.84 835.49 124.41 838.62"/><polygon class="cls-5" points="124.41 838.82 131.1 836.8 137.17 838.31 130.48 840.34 124.41 838.82"/><polygon class="cls-4" points="130.48 840.34 137.17 838.31 137.11 862.02 130.42 864.05 130.48 840.34"/><polygon class="cls-3" points="124.47 814.3 124.41 838.62 111.84 835.49 93.2 831.04 74.56 826.2 55.92 821.75 55.98 797.63 55.98 797.22 68.82 800.42 124.47 814.3"/><polygon class="cls-4" points="124.47 814.3 131.16 812.27 131.1 836.6 124.41 838.62 124.47 814.3"/><polygon class="cls-5" points="68.82 800.42 75.51 798.4 131.16 812.27 124.47 814.3 68.82 800.42"/><polygon class="cls-5" points="74.68 778.16 81.37 776.14 137.29 790.08 130.6 792.11 74.68 778.16"/><polygon class="cls-4" points="149.18 820.87 155.87 818.85 155.81 842.96 149.12 844.98 149.18 820.87"/><polygon class="cls-3" points="149.18 820.46 149.18 820.87 149.12 844.98 130.48 840.34 124.41 838.82 124.41 838.62 124.47 814.3 149.18 820.46"/><polygon class="cls-5" points="124.47 814.3 131.16 812.27 155.87 818.43 149.18 820.46 124.47 814.3"/><polygon class="cls-4" points="149.18 820.46 155.87 818.43 155.87 818.85 149.18 820.87 149.18 820.46"/><polygon class="cls-5" points="130.6 792.11 137.29 790.08 155.92 794.73 149.23 796.75 130.6 792.11"/><polygon class="cls-4" points="149.29 772.84 155.98 770.82 155.92 794.73 149.23 796.75 149.29 772.84"/><polygon class="cls-3" points="149.29 772.64 149.29 772.84 149.23 796.75 130.6 792.11 130.66 768 149.29 772.64"/><polygon class="cls-5" points="130.66 768 137.35 765.97 155.98 770.62 149.29 772.64 130.66 768"/><polygon class="cls-4" points="149.29 772.64 155.98 770.62 155.98 770.82 149.29 772.84 149.29 772.64"/><polygon class="cls-5" points="167.81 825.52 174.5 823.49 182.42 825.47 175.73 827.49 167.81 825.52"/><polygon class="cls-5" points="149.23 796.75 155.92 794.73 182.48 801.35 175.79 803.38 149.23 796.75"/><polygon class="cls-4" points="175.79 803.38 182.48 801.35 182.42 825.47 175.73 827.49 175.79 803.38"/><polygon class="cls-3" points="175.79 803.38 175.73 827.49 167.81 825.52 149.18 820.87 149.18 820.46 124.47 814.3 68.82 800.42 68.88 776.72 74.68 778.16 130.6 792.11 149.23 796.75 175.79 803.38"/><polygon class="cls-5" points="149.35 748.73 156.04 746.71 174.68 751.35 167.99 753.38 149.35 748.73"/><polygon class="cls-4" points="167.99 753.38 174.68 751.35 174.62 775.46 167.93 777.49 167.99 753.38"/><polygon class="cls-3" points="167.99 753.38 167.93 777.49 149.29 772.84 149.29 772.64 149.35 748.73 167.99 753.38"/><polygon class="cls-5" points="175.79 803.38 182.48 801.35 193.21 804.02 186.52 806.05 175.79 803.38"/><polygon class="cls-3" points="186.52 806.05 186.46 830.17 167.81 825.52 175.73 827.49 175.79 803.38 186.52 806.05"/><polygon class="cls-4" points="186.52 806.05 193.21 804.02 193.15 828.14 186.46 830.17 186.52 806.05"/><polygon class="cls-3" points="186.63 758.03 186.57 782.14 167.93 777.49 167.99 753.38 186.63 758.03"/><polygon class="cls-4" points="186.63 758.03 193.32 756 193.26 780.11 186.57 782.14 186.63 758.03"/><polygon class="cls-5" points="167.99 753.38 174.68 751.35 193.32 756 186.63 758.03 167.99 753.38"/></g><g class="cls-2"><polygon class="cls-3" points="205.09 834.4 205.04 858.51 186.4 853.86 186.46 829.75 205.09 834.4"/><polygon class="cls-4" points="205.09 834.4 211.78 832.37 211.73 856.48 205.04 858.51 205.09 834.4"/><polygon class="cls-5" points="186.46 829.75 193.15 827.73 211.78 832.37 205.09 834.4 186.46 829.75"/></g><g class="cls-2"><polygon class="cls-3" points="167.75 849.43 167.7 873.54 149.06 868.89 149.12 844.78 167.75 849.43"/><polygon class="cls-4" points="167.75 849.43 174.44 847.4 174.39 871.52 167.7 873.54 167.75 849.43"/><polygon class="cls-5" points="149.12 844.78 155.81 842.76 174.44 847.4 167.75 849.43 149.12 844.78"/></g><g class="cls-2"><polygon class="cls-4" points="167.64 897.45 174.33 895.43 174.32 899.68 167.63 901.71 167.64 897.45"/><polygon class="cls-3" points="186.28 902.1 186.22 926.22 167.58 921.57 167.63 901.71 167.64 897.45 186.28 902.1"/><polygon class="cls-4" points="186.28 902.1 192.97 900.08 192.91 924.2 186.22 926.22 186.28 902.1"/><polygon class="cls-5" points="167.64 897.45 174.33 895.43 192.97 900.08 186.28 902.1 167.64 897.45"/><polygon class="cls-3" points="186.34 877.99 186.28 902.1 167.64 897.45 167.63 901.71 167.7 873.34 186.34 877.99"/><polygon class="cls-4" points="186.34 877.99 193.03 875.97 192.97 900.08 186.28 902.1 186.34 877.99"/><polygon class="cls-5" points="167.7 873.34 174.39 871.32 193.03 875.97 186.34 877.99 167.7 873.34"/></g><g class="cls-2"><g class="cls-2"><g class="cls-6"><g class="cls-2"><path class="cls-7" d="M1530,2.2l-.82,783.06a1.49,1.49,0,0,0-.56-.11L1530,2.2" transform="translate(-1422.67 -2.2)"/><path class="cls-8" d="M1530,2.2l-1.38,782.95h-.09L1530,2.2" transform="translate(-1422.67 -2.2)"/><path class="cls-9" d="M1530,2.2l-1.47,782.95h-.07L1530,2.2" transform="translate(-1422.67 -2.2)"/><path class="cls-10" d="M1530,2.2l-1.54,782.95h-.06L1530,2.2" transform="translate(-1422.67 -2.2)"/><path class="cls-11" d="M1530,2.2l-1.6,782.95h-.06L1530,2.2" transform="translate(-1422.67 -2.2)"/><path class="cls-12" d="M1530,2.2l-1.66,783h0L1530,2.2" transform="translate(-1422.67 -2.2)"/><path class="cls-13" d="M1530,2.2l-1.71,783h0L1530,2.2" transform="translate(-1422.67 -2.2)"/><path class="cls-14" d="M1530,2.2l-1.76,783h0L1530,2.2" transform="translate(-1422.67 -2.2)"/><path class="cls-15" d="M1530,2.2l-1.81,783h0L1530,2.2" transform="translate(-1422.67 -2.2)"/><path class="cls-16" d="M1530,2.2l-1.86,783-.05,0L1530,2.2" transform="translate(-1422.67 -2.2)"/><path class="cls-17" d="M1530,2.2l-1.91,783h-.06l2-783" transform="translate(-1422.67 -2.2)"/><path class="cls-18" d="M1530,2.2l-2,783-.06,0,2-783" transform="translate(-1422.67 -2.2)"/><path class="cls-19" d="M1530,2.2l-2,783a.29.29,0,0,0-.13.08L1530,2.2" transform="translate(-1422.67 -2.2)"/><path class="cls-18" d="M1530,2.2l-2.16,783.11a0,0,0,0,1,0,0L1530,2.2" transform="translate(-1422.67 -2.2)"/><polyline class="cls-17" points="107.35 0 105.19 783.14 105.19 783.14 107.35 0"/></g></g></g><g class="cls-2"><g class="cls-20"><g class="cls-2"><path class="cls-7" d="M1529.2,785.26,1530,2.2l-1.38,782.95a1.49,1.49,0,0,1,.56.11" transform="translate(-1422.67 -2.2)"/><path class="cls-8" d="M1528.64,785.15,1530,2.2l-1.47,782.95h.09" transform="translate(-1422.67 -2.2)"/><path class="cls-9" d="M1528.55,785.15,1530,2.2l-1.54,782.95h.07" transform="translate(-1422.67 -2.2)"/><path class="cls-10" d="M1528.48,785.15,1530,2.2l-1.6,782.95h.06" transform="translate(-1422.67 -2.2)"/><path class="cls-11" d="M1528.42,785.15,1530,2.2l-1.66,783h.06" transform="translate(-1422.67 -2.2)"/><path class="cls-12" d="M1528.36,785.16,1530,2.2l-1.71,783h0" transform="translate(-1422.67 -2.2)"/><path class="cls-13" d="M1528.31,785.16,1530,2.2l-1.76,783h0" transform="translate(-1422.67 -2.2)"/><path class="cls-14" d="M1528.26,785.17,1530,2.2l-1.81,783h0" transform="translate(-1422.67 -2.2)"/><path class="cls-15" d="M1528.21,785.18,1530,2.2l-1.86,783h0" transform="translate(-1422.67 -2.2)"/><path class="cls-16" d="M1528.16,785.18,1530,2.2l-1.91,783,.05,0" transform="translate(-1422.67 -2.2)"/><path class="cls-17" d="M1528.11,785.2,1530,2.2l-2,783h.06" transform="translate(-1422.67 -2.2)"/><path class="cls-18" d="M1528.05,785.21l2-783-2,783,.06,0" transform="translate(-1422.67 -2.2)"/><path class="cls-19" d="M1528,785.23l2-783-2.16,783.11a.29.29,0,0,1,.13-.08" transform="translate(-1422.67 -2.2)"/><path class="cls-18" d="M1527.86,785.31,1530,2.2l-2.17,783.14a0,0,0,0,0,0,0" transform="translate(-1422.67 -2.2)"/><polyline class="cls-17" points="105.19 783.14 107.35 0 105.19 783.14 105.19 783.14"/></g></g></g><g class="cls-2"><g class="cls-21"><g class="cls-2"><path class="cls-7" d="M1527.85,785.35,1530,2.2l-1.53,783.34a1.18,1.18,0,0,1-.56-.11s-.08,0-.08-.08" transform="translate(-1422.67 -2.2)"/><path class="cls-8" d="M1528.49,785.54,1530,2.2l-1.44,783.34h-.09" transform="translate(-1422.67 -2.2)"/><path class="cls-9" d="M1528.58,785.54,1530,2.2l-1.37,783.34h-.07" transform="translate(-1422.67 -2.2)"/><path class="cls-10" d="M1528.65,785.54,1530,2.2l-1.31,783.34h-.06" transform="translate(-1422.67 -2.2)"/><path class="cls-11" d="M1528.71,785.54,1530,2.2l-1.25,783.34h-.06" transform="translate(-1422.67 -2.2)"/><path class="cls-12" d="M1528.77,785.54,1530,2.2l-1.2,783.33h0" transform="translate(-1422.67 -2.2)"/><path class="cls-13" d="M1528.82,785.53,1530,2.2l-1.15,783.33h0" transform="translate(-1422.67 -2.2)"/><path class="cls-14" d="M1528.87,785.53,1530,2.2l-1.1,783.32h-.05" transform="translate(-1422.67 -2.2)"/><path class="cls-15" d="M1528.92,785.52,1530,2.2l-1,783.31h0" transform="translate(-1422.67 -2.2)"/><path class="cls-16" d="M1529,785.51,1530,2.2l-1,783.3h0" transform="translate(-1422.67 -2.2)"/><path class="cls-17" d="M1529,785.5l1-783.3-.94,783.29H1529" transform="translate(-1422.67 -2.2)"/><path class="cls-18" d="M1529.08,785.49,1530,2.2l-.88,783.26-.06,0" transform="translate(-1422.67 -2.2)"/><path class="cls-19" d="M1529.14,785.46,1530,2.2l-.75,783.18a.22.22,0,0,1-.13.08" transform="translate(-1422.67 -2.2)"/><path class="cls-18" d="M1529.27,785.38,1530,2.2l-.74,783.15v0" transform="translate(-1422.67 -2.2)"/><polyline class="cls-17" points="106.61 783.15 107.35 0 106.61 783.14 106.61 783.15"/></g></g></g><g class="cls-2"><g class="cls-22"><g class="cls-2"><path class="cls-7" d="M1530,2.2l-2.17,783.15s0,.06.08.08a1.18,1.18,0,0,0,.56.11L1530,2.2" transform="translate(-1422.67 -2.2)"/><path class="cls-8" d="M1530,2.2l-1.53,783.34h.09L1530,2.2" transform="translate(-1422.67 -2.2)"/><path class="cls-9" d="M1530,2.2l-1.44,783.34h.07L1530,2.2" transform="translate(-1422.67 -2.2)"/><path class="cls-10" d="M1530,2.2l-1.37,783.34h.06L1530,2.2" transform="translate(-1422.67 -2.2)"/><path class="cls-11" d="M1530,2.2l-1.31,783.34h.06L1530,2.2" transform="translate(-1422.67 -2.2)"/><path class="cls-12" d="M1530,2.2l-1.25,783.34h0L1530,2.2" transform="translate(-1422.67 -2.2)"/><path class="cls-13" d="M1530,2.2l-1.2,783.33h0L1530,2.2" transform="translate(-1422.67 -2.2)"/><path class="cls-14" d="M1530,2.2l-1.15,783.33h.05L1530,2.2" transform="translate(-1422.67 -2.2)"/><path class="cls-15" d="M1530,2.2l-1.1,783.32h0L1530,2.2" transform="translate(-1422.67 -2.2)"/><path class="cls-16" d="M1530,2.2l-1,783.31h0l1-783.3" transform="translate(-1422.67 -2.2)"/><path class="cls-17" d="M1530,2.2l-1,783.3h.06L1530,2.2" transform="translate(-1422.67 -2.2)"/><path class="cls-18" d="M1530,2.2l-.94,783.29.06,0L1530,2.2" transform="translate(-1422.67 -2.2)"/><path class="cls-19" d="M1530,2.2l-.88,783.26a.22.22,0,0,0,.13-.08L1530,2.2" transform="translate(-1422.67 -2.2)"/><path class="cls-18" d="M1530,2.2l-.75,783.18v0L1530,2.2" transform="translate(-1422.67 -2.2)"/><polyline class="cls-17" points="107.35 0 106.61 783.15 106.61 783.14 107.35 0 107.35 0"/></g></g></g><g class="cls-2"><g class="cls-23"><g class="cls-2"><path class="cls-7" d="M1530,2.2l-.74,783.15s0-.06-.08-.09L1530,2.2" transform="translate(-1422.67 -2.2)"/></g></g></g><g class="cls-2"><g class="cls-24"><g class="cls-2"><path class="cls-7" d="M1529.28,785.35,1530,2.2l-.82,783.06s.08.06.08.09" transform="translate(-1422.67 -2.2)"/></g></g></g></g></svg>